<?xml version="1.0" standalone="no"?>
<!DOCTYPE svg PUBLIC "-//W3C//DTD SVG 20010904//EN"
 "http://www.w3.org/TR/2001/REC-SVG-20010904/DTD/svg10.dtd">
<svg version="1.0" xmlns="http://www.w3.org/2000/svg"
 width="1560.000000pt" height="1560.000000pt" viewBox="0 0 1560.000000 1560.000000"
 preserveAspectRatio="xMidYMid meet">
<metadata>
Created by potrace 1.14, written by Peter Selinger 2001-2017
</metadata>
<g transform="translate(0.000000,1560.000000) scale(0.100000,-0.100000)"
fill="#000000" stroke="none">
<path d="M6303 14373 c9 -2 25 -2 35 0 9 3 1 5 -18 5 -19 0 -27 -2 -17 -5z"/>
<path d="M6706 14288 c-11 -6 -46 -8 -82 -5 -69 5 -78 -1 -38 -28 31 -20 92
-13 126 15 26 21 22 34 -6 18z"/>
<path d="M7981 14165 c2 -11 0 -26 -4 -32 -5 -8 -3 -13 4 -13 10 0 10 -3 2
-11 -9 -9 -7 -18 5 -38 l17 -25 -25 17 c-30 21 -41 22 -34 2 4 -8 12 -15 20
-15 8 0 14 -6 14 -14 0 -8 6 -17 13 -19 7 -3 4 -6 -6 -6 -12 -1 -17 -7 -15
-18 2 -10 10 -17 17 -15 9 2 10 -2 3 -15 -11 -18 19 -101 41 -115 9 -6 9 -8 0
-8 -7 0 -13 -7 -13 -17 0 -9 3 -13 6 -10 4 4 14 -2 23 -12 9 -10 23 -20 31
-24 10 -3 6 -6 -10 -7 -14 -1 -19 -4 -12 -7 6 -2 10 -9 6 -14 -3 -5 7 -10 23
-10 26 -2 25 -2 -7 -9 -35 -7 -35 -7 -5 -9 l30 -1 0 -78 c0 -70 -2 -77 -20
-77 -25 0 -33 -18 -34 -70 -1 -22 -10 -74 -20 -115 -10 -42 -15 -84 -11 -95 4
-11 3 -31 -2 -45 -6 -14 -11 -52 -13 -85 -2 -43 -11 -77 -33 -120 -36 -72 -76
-215 -63 -228 10 -10 35 12 62 53 14 21 18 23 33 11 9 -7 16 -22 16 -32 0 -28
25 -23 65 12 33 29 46 59 26 59 -11 0 0 41 26 98 46 103 122 367 109 379 -3 3
-15 -2 -25 -11 -18 -17 -20 -17 -29 1 -5 10 -17 79 -27 153 -10 77 -32 182
-51 245 -18 61 -41 142 -50 180 -10 39 -23 84 -29 100 -7 17 -19 48 -26 70
-15 46 -32 71 -28 40z m109 -675 c0 -5 -4 -10 -10 -10 -5 0 -10 5 -10 10 0 6
5 10 10 10 6 0 10 -4 10 -10z m10 -35 c0 -8 -4 -15 -9 -15 -5 0 -11 7 -15 15
-3 9 0 15 9 15 8 0 15 -7 15 -15z m17 -115 c-2 -28 -7 -54 -11 -57 -10 -10
-26 19 -18 32 3 5 5 20 3 32 -3 25 5 43 20 43 6 0 8 -22 6 -50z m-29 -462 c-6
-18 -28 -21 -28 -4 0 9 7 16 16 16 9 0 14 -5 12 -12z"/>
<path d="M7935 14130 c-3 -5 -1 -10 4 -10 6 0 11 5 11 10 0 6 -2 10 -4 10 -3
0 -8 -4 -11 -10z"/>
<path d="M5707 14037 c-49 -93 -134 -398 -156 -558 -16 -123 -14 -282 4 -326
8 -19 15 -63 16 -97 0 -47 2 -56 9 -38 12 29 21 28 55 -8 16 -16 32 -30 36
-30 11 0 1 47 -16 81 -25 48 -20 65 22 67 21 2 47 12 60 23 17 17 35 21 82 21
50 0 61 3 66 19 4 10 3 24 -2 31 -4 7 -9 24 -11 38 -2 13 -6 27 -10 30 -9 6
-10 16 -13 68 -2 25 -12 53 -25 69 -19 24 -24 26 -47 16 -18 -9 -27 -9 -29 -1
-3 8 -10 8 -25 -1 -30 -15 -65 -14 -89 4 -28 21 -37 18 -30 -10 8 -31 -7 -33
-21 -2 -6 13 -6 33 -1 52 12 39 29 122 33 160 6 55 46 209 81 314 36 108 40
133 11 78z"/>
<path d="M8060 13700 c0 -5 7 -10 15 -10 8 0 15 5 15 10 0 6 -7 10 -15 10 -8
0 -15 -4 -15 -10z"/>
<path d="M8045 13619 c-4 -6 -5 -13 -2 -16 7 -7 27 6 27 18 0 12 -17 12 -25
-2z"/>
<path d="M7996 13583 c-10 -21 -23 -49 -31 -63 -11 -21 -11 -27 0 -37 11 -10
16 -6 28 20 15 33 33 117 24 117 -3 0 -12 -17 -21 -37z"/>
<path d="M6755 13340 c3 -5 8 -10 11 -10 2 0 4 5 4 10 0 6 -5 10 -11 10 -5 0
-7 -4 -4 -10z"/>
<path d="M6738 13273 c7 -3 16 -2 19 1 4 3 -2 6 -13 5 -11 0 -14 -3 -6 -6z"/>
<path d="M6111 13085 c3 -25 -3 -33 -32 -39 -17 -3 -28 -10 -25 -15 9 -14 -42
-23 -64 -11 -15 8 -22 6 -33 -10 -8 -12 -20 -18 -30 -15 -8 4 -18 1 -22 -4 -3
-6 -11 -9 -16 -5 -5 3 -32 -6 -60 -20 -41 -22 -58 -25 -98 -21 -38 4 -50 2
-54 -10 -9 -23 -51 -18 -80 9 l-26 24 -6 -29 c-4 -16 -1 -52 6 -79 11 -42 16
-50 36 -50 13 0 52 -22 87 -49 35 -28 81 -57 102 -66 39 -16 84 -52 84 -66 0
-5 -22 -5 -50 -2 -27 3 -50 2 -50 -3 0 -12 95 -65 155 -86 28 -10 85 -21 127
-24 43 -4 75 -11 72 -15 -3 -5 2 -6 10 -3 8 3 43 -8 78 -24 68 -33 240 -92
264 -92 9 0 14 6 12 13 -5 13 -34 29 -141 78 -71 32 -134 87 -143 125 -4 14
-11 20 -22 17 -9 -2 -44 12 -76 32 -32 19 -61 33 -64 30 -3 -3 1 -5 8 -5 10 0
11 -3 3 -11 -7 -7 -33 -8 -77 -4 -63 7 -69 10 -100 49 -18 22 -33 49 -33 59 0
19 32 24 42 6 8 -13 45 -27 88 -34 18 -3 40 -8 50 -11 16 -5 18 -2 12 18 -4
12 -25 51 -47 85 -25 40 -38 70 -35 83 3 10 0 21 -7 23 -23 9 27 43 56 39 16
-3 28 0 28 7 0 18 24 13 43 -9 14 -16 24 -19 56 -14 24 4 41 2 45 -5 4 -6 20
-11 37 -11 25 0 29 4 29 29 0 23 -8 34 -35 51 -19 12 -32 26 -29 32 4 6 -4 8
-17 6 -15 -2 -31 5 -42 17 -9 11 -17 16 -16 10z"/>
<path d="M7981 12716 c-24 -50 -59 -106 -78 -126 -19 -19 -66 -68 -104 -107
-43 -45 -72 -83 -75 -100 -2 -16 -11 -47 -20 -71 -9 -24 -13 -46 -9 -50 3 -3
65 -7 137 -7 96 0 132 3 135 13 3 6 -2 12 -11 12 -12 0 -14 7 -9 33 10 53 15
48 28 -26 l6 -37 111 4 c144 6 165 -2 215 -84 21 -34 75 -109 121 -168 45 -59
115 -150 154 -202 88 -117 200 -252 253 -305 43 -43 146 -108 235 -148 30 -13
93 -55 139 -92 47 -36 107 -78 135 -92 28 -14 62 -34 75 -44 13 -11 31 -19 40
-19 14 1 14 2 -1 11 -10 5 -18 16 -18 23 0 8 -13 19 -29 26 -64 26 -63 23 -86
395 -8 132 -20 283 -27 335 -14 122 -14 416 0 499 10 59 19 74 46 84 6 2 1 21
-10 42 -26 50 -50 57 -184 53 -102 -3 -107 -2 -175 32 -59 29 -79 35 -128 33
-40 -2 -68 3 -95 17 -20 10 -66 24 -102 30 -36 6 -99 18 -140 25 -41 8 -118
19 -170 25 -213 24 -288 41 -310 69 -3 4 -25 -34 -49 -83z m-135 -430 c20 -21
17 -28 -8 -20 -29 8 -31 10 -23 23 8 14 14 14 31 -3z"/>
<path d="M5590 12770 c0 -5 5 -10 11 -10 5 0 7 5 4 10 -3 6 -8 10 -11 10 -2 0
-4 -4 -4 -10z"/>
<path d="M5610 12705 c28 -74 86 -165 133 -208 48 -44 272 -167 305 -167 7 0
48 -14 92 -30 43 -17 129 -40 192 -51 62 -11 138 -24 168 -30 88 -16 320 -35
421 -33 123 2 338 28 446 55 47 12 138 45 202 75 122 56 134 68 35 33 -66 -23
-113 -35 -162 -43 -19 -2 -41 -11 -51 -20 -29 -26 -140 -55 -280 -72 -117 -15
-157 -16 -303 -6 -92 7 -189 17 -216 23 -106 25 -129 31 -167 49 -29 14 -53
17 -85 13 -50 -6 -141 16 -165 40 -8 8 -36 18 -62 21 -114 17 -253 87 -322
162 -26 30 -55 54 -62 54 -22 0 -78 71 -85 108 -4 18 -15 37 -25 43 -17 9 -18
7 -9 -16z"/>
<path d="M7441 12708 c-12 -32 4 -57 37 -57 15 0 42 -3 60 -7 24 -5 32 -3 32
8 0 23 -34 48 -64 48 -14 0 -29 7 -32 15 -9 22 -23 18 -33 -7z"/>
<path d="M7375 12710 c-4 -6 -19 -9 -35 -5 -21 5 -29 2 -35 -12 -5 -10 -7 -21
-7 -25 1 -5 -2 -8 -8 -8 -5 0 -10 5 -10 11 0 6 -10 9 -22 8 -13 -1 -31 2 -41
6 -21 9 -46 -10 -31 -24 19 -18 88 -35 92 -22 6 18 43 13 40 -5 -2 -10 3 -19
11 -22 9 -3 11 1 7 14 -7 22 2 38 27 47 13 5 17 1 17 -14 0 -32 17 -13 18 20
1 32 -12 49 -23 31z"/>
<path d="M6395 12618 c4 -21 1 -22 -26 -8 -10 6 -19 7 -19 2 0 -10 36 -29 70
-36 106 -22 191 -44 420 -112 25 -7 72 -21 105 -30 33 -10 62 -21 65 -24 3 -4
12 -7 20 -7 8 0 38 -5 65 -11 28 -6 66 -13 86 -17 21 -3 49 -15 63 -26 l26
-20 0 25 c0 30 -28 51 -85 64 -39 9 -235 84 -266 101 -9 5 -34 13 -55 17 -22
4 -51 13 -66 21 -16 7 -28 11 -28 7 0 -4 -6 -2 -13 4 -7 6 -28 14 -47 17 -19
3 -51 10 -70 15 -63 17 -154 32 -201 33 -40 2 -46 -1 -44 -15z"/>
<path d="M5355 12394 c-16 -7 -42 -13 -58 -14 -15 0 -64 -13 -110 -29 -236
-84 -318 -111 -336 -111 -10 0 -41 -6 -67 -14 -27 -8 -74 -20 -104 -26 -126
-28 -122 -92 7 -105 24 -3 54 -12 67 -21 34 -22 104 -133 131 -207 31 -85 82
-343 91 -452 3 -49 8 -93 11 -97 2 -5 -2 -8 -9 -8 -10 0 -10 -2 -1 -8 7 -4 14
-30 16 -57 2 -28 11 -67 20 -88 26 -59 34 -97 67 -302 16 -104 33 -203 36
-220 3 -16 12 -93 19 -170 8 -77 19 -183 26 -235 6 -52 12 -207 13 -345 1
-237 0 -256 -26 -376 -27 -121 -27 -129 -12 -185 8 -33 23 -81 34 -109 10 -27
32 -86 49 -130 41 -107 63 -225 55 -297 -4 -39 -3 -63 6 -72 17 -21 16 -191
-3 -311 -2 -11 -7 -27 -12 -35 -5 -8 -8 -29 -7 -46 2 -18 -2 -35 -8 -39 -5 -3
-10 -15 -10 -25 0 -10 -5 -31 -12 -47 -6 -15 -12 -32 -13 -38 -2 -20 -17 -91
-22 -108 -2 -10 -16 -23 -30 -30 -23 -10 -24 -12 -7 -24 21 -16 12 -29 -13
-17 -10 4 -22 8 -28 9 -5 0 -19 6 -30 12 -36 19 -61 -1 -94 -75 -22 -47 -14
-100 61 -422 11 -47 23 -94 28 -105 5 -11 12 -51 15 -90 4 -38 12 -76 17 -82
6 -7 8 -13 4 -13 -4 0 0 -12 7 -27 8 -16 14 -45 13 -65 -1 -21 1 -38 5 -38 4
0 7 -10 8 -22 5 -84 7 -100 18 -106 7 -4 14 -55 17 -132 4 -69 8 -150 11 -180
2 -30 5 -88 5 -128 1 -66 3 -74 24 -83 19 -9 22 -17 20 -55 -1 -24 -5 -52 -8
-61 -3 -10 -1 -24 4 -32 6 -10 3 -19 -8 -28 -9 -7 -12 -13 -5 -13 17 0 27 -58
13 -75 -6 -8 -10 -22 -8 -32 1 -10 -1 -24 -6 -31 -4 -7 -3 -19 4 -27 10 -11
10 -15 1 -15 -8 0 -10 -11 -7 -32 3 -18 -2 -44 -11 -61 -12 -25 -13 -31 -1
-38 10 -7 10 -9 -2 -9 -12 -1 -12 -3 3 -14 21 -17 22 -49 1 -67 -13 -11 -15
-24 -9 -74 9 -76 7 -112 -6 -137 -9 -16 -7 -20 9 -25 17 -4 21 -15 24 -61 2
-32 1 -61 -3 -65 -4 -5 -1 -19 5 -32 8 -15 10 -43 5 -82 -5 -45 -3 -62 9 -75
10 -12 13 -29 9 -53 -3 -21 -2 -33 4 -30 5 4 6 -3 0 -17 -7 -18 -3 -31 15 -58
26 -38 31 -76 12 -83 -10 -3 -10 -9 0 -26 7 -12 10 -26 6 -32 -3 -6 2 -19 13
-31 13 -15 18 -37 19 -82 0 -34 3 -67 6 -72 3 -5 9 -31 13 -59 4 -27 12 -56
17 -63 7 -8 7 -12 -1 -12 -6 0 -11 -5 -11 -11 0 -5 4 -8 9 -5 4 3 9 -29 10
-72 0 -42 2 -94 4 -114 2 -30 -1 -38 -15 -38 -27 0 -33 -21 -11 -39 18 -14 20
-26 18 -81 -2 -63 -3 -66 -36 -82 -19 -10 -56 -18 -84 -18 -42 -1 -47 -2 -30
-12 11 -6 24 -17 28 -25 4 -7 14 -13 21 -13 14 0 29 -24 31 -50 0 -8 6 -14 13
-12 7 1 12 -4 12 -12 0 -15 21 -26 52 -26 36 0 86 -39 108 -86 12 -25 27 -43
34 -41 6 3 10 10 8 17 -3 11 0 11 12 1 9 -7 15 -16 14 -19 -4 -14 35 -152 42
-152 5 0 11 -15 15 -33 4 -17 11 -45 15 -62 5 -16 17 -57 26 -90 9 -33 22 -71
30 -85 40 -78 57 -174 34 -182 -6 -2 -12 -15 -14 -30 -3 -35 -23 -58 -50 -58
-11 0 -30 -7 -40 -15 -44 -33 -96 -11 -131 55 -7 14 -34 95 -60 180 -26 85
-53 162 -61 170 -12 12 -14 12 -14 -1 0 -17 41 -154 86 -289 45 -132 42 -194
-9 -204 -6 -2 -19 -6 -27 -9 -115 -43 -154 -40 -185 15 -20 36 -70 182 -100
292 -12 42 -19 56 -27 48 -15 -15 8 -179 42 -310 25 -90 68 -179 93 -190 4 -2
12 -13 18 -24 8 -16 7 -22 -8 -34 -10 -7 -24 -14 -31 -14 -14 0 -49 35 -96 97
l-30 38 -70 -7 c-95 -9 -104 0 -146 160 -10 40 -30 58 -30 27 0 -14 -39 -21
-96 -16 -12 1 -24 -5 -27 -12 -9 -23 17 -62 40 -62 12 0 36 -18 58 -42 21 -24
42 -43 48 -43 5 0 24 -10 41 -23 17 -12 43 -28 57 -36 15 -7 32 -23 39 -36 7
-13 25 -26 41 -29 16 -3 29 -12 29 -20 0 -9 10 -21 22 -27 12 -7 36 -27 54
-45 20 -22 41 -34 58 -34 27 0 35 15 14 23 -8 4 -7 6 3 6 9 1 24 12 33 25 20
31 105 51 153 37 38 -11 79 -2 162 36 56 26 92 30 132 18 15 -5 19 -4 15 4 -4
6 -3 11 3 11 5 0 18 3 28 6 15 5 15 4 3 -5 -25 -18 -4 -22 33 -6 21 8 37 16
37 18 12 73 9 134 -9 187 -30 86 -28 116 12 153 l32 30 -32 9 c-23 6 -36 19
-52 51 -18 37 -19 50 -11 102 5 33 24 96 42 139 l31 79 -27 24 c-27 23 -29 23
-53 8 -30 -20 -40 -13 -26 17 16 35 6 51 -20 33 -12 -8 -25 -15 -29 -15 -12 0
-10 108 2 115 6 3 10 22 10 42 0 37 -36 83 -66 83 -7 0 -14 3 -14 8 0 12 -60
42 -83 42 -38 0 -101 27 -116 50 -37 55 73 74 159 26 25 -13 64 -27 88 -31 39
-6 70 -33 55 -48 -6 -7 13 -27 42 -43 15 -8 19 -20 18 -50 -1 -21 0 -33 3 -27
10 22 62 73 75 73 45 0 151 -102 134 -130 -3 -5 -3 -30 0 -54 6 -35 18 -55 57
-96 44 -46 49 -55 43 -82 -14 -62 -88 -158 -122 -158 -19 0 -21 -3 -14 -22 7
-18 4 -28 -12 -46 -16 -17 -17 -22 -5 -22 8 0 26 8 39 19 21 16 52 19 289 25
270 7 817 -7 830 -21 4 -4 10 -55 13 -113 6 -123 20 -167 83 -261 l46 -69 -6
-93 c-8 -135 19 -403 55 -544 31 -127 35 -173 18 -237 -30 -117 -28 -113 -71
-119 -22 -3 -73 -3 -113 0 -44 4 -92 1 -117 -6 -41 -11 -220 -16 -778 -21
-167 -1 -216 -4 -191 -12 19 -5 43 -7 53 -5 10 3 18 1 18 -4 0 -5 -17 -9 -37
-9 l-38 0 30 -20 30 -20 -25 0 c-20 0 -22 -2 -10 -10 8 -5 11 -10 5 -10 -5 0
-4 -5 2 -11 8 -8 19 -7 41 6 40 24 127 13 173 -21 32 -23 32 -24 8 -25 -13 0
-42 -3 -64 -6 -22 -2 -89 -5 -150 -4 -634 0 -689 3 -701 36 -4 10 -13 8 -41
-11 -36 -24 -79 -24 -95 0 -5 8 -8 7 -8 -1 0 -9 -18 -13 -55 -13 -45 0 -56 4
-65 21 l-11 20 -18 -20 c-25 -29 -100 -29 -126 -1 -17 18 -17 20 0 26 10 4 20
1 25 -6 4 -7 13 -9 19 -5 9 5 9 10 1 20 -15 18 3 29 31 20 17 -6 19 -9 8 -17
-11 -8 -10 -8 4 -4 10 3 23 6 28 6 6 0 8 4 4 9 -5 10 3 19 40 46 18 13 -21 14
-309 15 -181 0 -564 2 -850 5 -287 2 -642 5 -791 5 -148 0 -389 5 -534 11
-199 7 -276 7 -317 -2 -51 -12 -54 -11 -89 16 -29 22 -36 33 -35 59 4 76 1 87
-22 81 -13 -3 -33 -7 -45 -8 -17 -1 -23 -8 -23 -27 0 -44 -20 -99 -38 -104
-30 -8 -256 -9 -1155 -2 l-877 6 0 -445 0 -445 23 -1 c38 -1 182 -8 192 -9 6
0 39 3 75 7 69 9 69 9 85 84 7 38 35 66 72 74 l32 6 3 -78 3 -78 30 -3 c17 -2
35 -8 41 -13 7 -5 34 -4 70 2 37 7 109 9 195 5 75 -4 300 -7 500 -6 368 0 493
-6 483 -21 -3 -5 6 -9 20 -9 14 0 26 4 26 9 0 6 29 10 65 10 39 0 65 -5 65
-11 0 -9 22 -7 74 9 11 3 16 1 12 -5 -8 -13 32 -37 42 -26 4 4 1 9 -5 11 -7 3
-13 9 -13 14 0 13 29 11 45 -3 44 -39 45 -40 60 -24 8 8 15 18 15 23 0 12 142
16 150 4 4 -7 24 -8 60 -2 30 5 105 7 165 4 61 -2 260 -4 443 -3 366 1 362 1
364 -60 1 -26 5 -30 28 -30 15 0 49 -3 75 -7 l48 -6 -24 24 c-13 13 -32 29
-43 34 -11 6 -20 18 -22 28 -1 9 -12 26 -25 35 -21 18 -22 24 -20 178 1 87 2
182 2 209 -1 58 -10 247 -14 287 -4 35 2 35 37 -1 34 -36 52 -31 52 12 0 65
11 84 45 83 l31 -1 -5 -165 c-3 -91 -8 -185 -11 -210 -3 -25 -6 -119 -8 -210
l-3 -165 31 3 c25 3 32 -1 37 -17 7 -27 33 -27 40 0 6 21 9 21 154 16 81 -3
149 -6 150 -6 1 -1 0 -9 -3 -18 -5 -17 -5 -17 8 -1 13 15 48 16 389 13 315 -3
527 -7 624 -14 11 0 43 0 70 2 28 2 94 4 147 5 l98 2 -61 61 c-94 96 -142 210
-143 341 -1 63 3 82 20 105 26 35 83 75 103 71 8 -2 30 -22 48 -46 35 -46 97
-227 116 -339 10 -59 9 -65 -18 -120 -16 -32 -33 -60 -37 -61 -5 -2 -6 -8 -2
-13 3 -5 52 -9 109 -9 89 0 104 -2 99 -15 -8 -20 5 -19 27 1 16 14 43 15 266
6 237 -10 284 -11 539 -16 l112 -1 1 83 c1 45 7 95 12 110 6 15 12 57 14 93 4
81 12 109 31 109 19 0 18 28 -1 32 -25 5 31 58 60 58 19 0 25 5 25 23 0 21
-19 62 -20 42 0 -5 -5 -2 -11 8 -6 9 -7 26 -4 37 4 11 2 20 -3 20 -5 0 -13 16
-16 35 -4 19 -13 35 -20 35 -12 0 -25 28 -26 53 0 4 16 7 36 7 31 0 35 2 24
15 -20 24 14 30 44 8 l25 -18 -2 -245 c-2 -241 -2 -245 -23 -248 -46 -7 -54
-95 -9 -112 23 -9 35 -48 35 -116 0 -35 17 -46 98 -64 54 -13 81 -6 49 11 -17
10 -15 29 3 29 7 0 42 -27 108 -81 7 -5 10 -14 7 -19 -9 -15 37 -23 165 -29
l125 -6 4 -35 c2 -19 -2 -78 -8 -130 -6 -52 -15 -144 -21 -205 -6 -60 -20
-175 -30 -255 -10 -80 -22 -189 -25 -242 l-5 -98 655 0 655 0 0 73 c0 41 7
120 16 178 15 106 21 133 94 439 41 172 93 468 125 705 11 80 18 214 20 400 3
321 17 518 50 735 9 60 -18 227 -51 316 -19 51 -34 101 -34 112 0 11 14 63 30
117 34 109 38 185 18 321 -12 82 -12 83 15 123 15 23 33 41 40 41 6 0 30 -28
51 -61 22 -34 45 -63 53 -66 7 -3 13 -11 13 -18 0 -7 17 -35 38 -62 56 -72 72
-100 72 -125 -1 -14 -26 -50 -65 -92 -42 -45 -65 -78 -65 -93 0 -13 20 -53 45
-90 45 -65 45 -66 45 -152 0 -64 -6 -102 -22 -148 l-22 -61 36 -149 c50 -201
52 -214 37 -328 -7 -55 -13 -170 -14 -255 -2 -188 -19 -454 -39 -610 -8 -63
-20 -171 -26 -240 -5 -69 -22 -172 -35 -230 -14 -58 -32 -139 -40 -181 -8 -41
-21 -91 -29 -111 -8 -19 -24 -80 -35 -134 -11 -54 -39 -151 -61 -214 -22 -63
-40 -120 -40 -127 0 -10 31 -13 129 -13 l129 0 6 27 c3 16 10 62 16 103 7 41
20 109 30 150 11 41 24 109 30 150 6 41 22 116 35 165 16 57 28 141 35 230 6
94 16 157 29 190 17 46 22 50 56 53 20 2 42 -2 49 -8 15 -11 59 1 71 19 9 15
85 14 118 -1 28 -14 36 -42 15 -52 -7 -3 1 -3 17 0 17 3 35 7 40 8 6 1 25 12
42 24 31 22 59 30 49 13 -3 -4 9 -5 27 -1 17 4 31 12 29 18 -3 16 41 15 107
-3 49 -13 57 -12 104 6 49 20 52 20 84 2 18 -10 33 -21 33 -25 0 -15 37 -8 54
11 25 27 147 38 131 11 -9 -14 14 -60 29 -60 7 0 20 -10 28 -22 l15 -22 424
-3 c467 -4 498 -6 531 -33 20 -16 23 -29 25 -92 5 -183 25 -485 33 -503 8 -18
9 -16 9 8 1 21 7 30 22 34 15 4 20 12 16 28 -3 16 0 22 10 18 7 -3 13 0 13 5
0 6 10 14 22 18 22 6 21 7 -4 20 -39 21 -49 104 -11 104 8 0 11 -5 8 -10 -3
-6 -3 -16 2 -22 4 -7 8 -16 8 -20 0 -5 5 -8 10 -8 6 0 13 42 16 94 4 52 9 98
12 103 12 18 -13 80 -53 133 -22 29 -40 57 -40 62 0 5 -12 27 -26 49 -14 23
-31 60 -38 83 -7 24 -36 77 -64 120 -33 49 -53 93 -57 121 -5 29 -16 52 -37
72 -16 15 -54 76 -83 135 -29 59 -60 117 -69 130 -8 12 -23 55 -32 95 -15 67
-15 75 0 98 21 31 24 225 3 225 -8 0 -11 -13 -9 -42 3 -36 -1 -48 -26 -75 -42
-48 -66 -41 -100 27 -19 37 -76 73 -104 65 -16 -4 -19 -3 -10 3 11 7 7 11 -13
16 -19 5 -33 2 -44 -9 -22 -19 -31 -19 -31 2 0 15 -2 15 -18 0 -10 -10 -23
-13 -32 -7 -8 4 -50 5 -93 1 -55 -5 -81 -3 -88 5 -7 8 -6 14 3 17 8 4 7 6 -4
6 -10 1 -18 -4 -18 -10 0 -5 -4 -8 -9 -4 -5 3 -17 -3 -27 -12 -11 -11 -19 -14
-21 -7 -3 8 -16 9 -45 2 -30 -6 -224 -5 -298 2 -3 0 2 5 10 10 9 6 10 10 3 10
-6 0 -15 -5 -18 -10 -4 -6 -35 -10 -70 -9 -49 1 -62 5 -58 15 4 10 -5 14 -34
14 -32 0 -42 -5 -51 -24 -9 -19 -20 -24 -71 -29 -80 -7 -374 3 -385 13 -5 5
-10 87 -11 182 -3 172 -3 173 24 215 14 24 31 43 37 43 6 0 12 11 12 25 0 28
18 55 37 55 6 0 22 -9 35 -20 26 -23 29 -23 50 -10 10 6 11 10 3 10 -7 0 -13
8 -13 18 0 14 -2 15 -10 2 -9 -13 -14 -7 -11 13 0 4 -9 8 -21 8 -17 1 -19 2
-5 6 9 2 17 11 17 18 0 7 6 16 13 18 6 3 1 6 -13 6 -15 1 -32 -5 -39 -11 -11
-11 -13 -7 -7 21 3 18 6 38 6 43 0 5 10 2 22 -6 25 -18 42 -21 33 -6 -3 5 1
10 10 10 9 0 13 -4 10 -10 -7 -12 15 -13 33 -1 11 7 10 9 -3 15 -9 3 -13 11
-10 17 4 6 13 8 21 5 11 -4 12 -2 4 14 -15 28 -12 39 10 33 11 -3 20 -1 20 3
0 5 16 9 35 8 39 -1 101 -37 192 -113 32 -26 81 -60 108 -75 51 -28 62 -33
200 -81 93 -32 100 -37 125 -84 22 -41 180 -208 224 -236 43 -28 141 -26 199
5 45 24 46 24 66 6 11 -10 23 -27 26 -36 6 -18 34 -35 43 -25 3 2 0 11 -7 19
-9 11 -9 15 1 18 8 3 -3 20 -30 47 -23 23 -40 46 -37 51 3 4 -11 23 -30 41
-19 19 -35 37 -35 41 0 4 -13 21 -30 38 -16 17 -30 38 -30 46 0 9 -9 29 -21
45 -11 16 -19 35 -16 42 7 19 -20 50 -37 44 -9 -4 -22 -22 -30 -41 -8 -19 -26
-42 -40 -51 -23 -15 -27 -15 -59 0 -82 39 -211 168 -247 246 -8 18 -28 31 -63
44 -43 15 -73 40 -172 141 -66 68 -164 156 -217 197 -109 83 -304 264 -358
332 -19 24 -59 76 -89 115 -30 39 -81 90 -115 114 -125 90 -439 418 -518 541
-14 22 -97 112 -185 200 -203 205 -419 466 -518 625 -16 25 -58 79 -95 120
-84 94 -156 200 -165 243 -6 28 -25 77 -71 184 -8 20 -32 44 -61 62 -47 30
-74 52 -226 192 -99 91 -120 104 -176 114 -26 4 -54 17 -69 32 -23 23 -24 29
-20 131 l3 107 -60 20 c-33 12 -70 27 -83 34 -25 13 -154 8 -265 -10 -104 -18
-350 -100 -453 -151 -34 -17 -69 -28 -77 -25 -19 7 -16 38 19 177 52 210 102
321 157 345 39 18 229 61 357 82 116 18 229 6 315 -33 47 -22 62 -36 95 -88
27 -42 84 -103 174 -184 101 -91 153 -148 206 -222 38 -54 74 -101 79 -105 26
-16 205 -242 257 -325 60 -94 242 -342 443 -600 97 -126 192 -238 365 -435 78
-89 486 -495 725 -723 188 -178 503 -492 706 -703 83 -86 200 -203 262 -260
61 -57 166 -158 232 -223 l120 -119 56 49 c114 99 266 198 380 246 62 26 144
23 210 -8 31 -15 59 -24 62 -20 4 4 1 28 -6 54 -13 50 -57 122 -126 207 -63
77 -67 88 -68 199 l-2 101 114 3 c63 1 120 7 127 13 6 5 96 11 204 12 182 3
194 2 219 -17 25 -20 37 -21 376 -20 193 0 541 6 775 12 234 7 535 11 670 10
135 0 281 0 325 1 99 3 97 3 225 -2 58 -3 143 -6 190 -6 47 -1 91 -5 99 -10 7
-5 16 -30 18 -57 3 -27 10 -55 15 -61 6 -7 8 -19 5 -27 -5 -13 25 -30 46 -27
4 1 16 -3 27 -9 19 -10 19 -11 -1 -45 -16 -27 -19 -44 -14 -74 7 -41 32 -62
47 -39 9 15 9 11 9 168 0 69 3 137 6 152 5 28 6 28 78 28 41 0 77 5 80 10 8
13 118 13 131 1 11 -11 130 -14 562 -12 l322 2 0 24 c0 31 -4 33 -84 41 -47 5
-74 3 -91 -6 -19 -10 -36 -11 -77 -2 -65 13 -87 12 -81 -3 8 -23 -55 -26 -97
-4 -36 19 -51 20 -212 15 -275 -9 -531 -6 -545 6 -9 7 -32 8 -66 3 -28 -4
-230 -9 -447 -9 -217 -1 -475 -6 -572 -10 -131 -6 -178 -5 -178 3 0 16 -123
12 -178 -5 -44 -14 -224 -19 -281 -8 -18 4 -31 13 -31 22 0 13 -11 14 -77 7
-79 -9 -103 -9 -180 -5 -46 3 -66 23 -79 76 -3 16 -21 56 -39 89 -17 33 -38
78 -45 100 -7 22 -17 45 -21 51 -5 6 -7 19 -3 27 7 19 -14 43 -42 49 -10 2
-20 12 -22 22 -3 11 0 16 7 12 6 -4 11 -3 11 2 0 6 -7 12 -15 16 -8 3 -15 11
-15 18 0 8 -9 20 -20 28 -13 9 -18 21 -14 36 4 16 0 26 -16 34 -12 6 -19 17
-17 23 2 7 -13 32 -35 56 -21 24 -38 48 -38 53 0 17 -53 88 -65 88 -14 0 -10
-35 6 -55 4 -6 13 -23 19 -39 l11 -29 -25 17 c-14 9 -27 16 -30 16 -11 0 81
-130 96 -135 9 -3 21 -19 27 -35 5 -17 15 -30 21 -30 6 0 16 -12 23 -27 6 -16
20 -37 30 -48 10 -11 16 -28 13 -39 -3 -11 4 -32 15 -47 10 -15 19 -31 19 -36
0 -6 9 -18 20 -28 11 -10 17 -21 15 -25 -3 -4 2 -13 10 -20 22 -18 65 -96 65
-119 0 -25 -61 -73 -98 -77 -15 -2 -85 -6 -157 -10 -163 -9 -124 -24 65 -25
71 0 116 -4 105 -8 -11 -5 -125 -8 -254 -7 -176 1 -235 4 -239 14 -3 9 14 12
60 13 60 1 61 2 23 10 -22 4 -62 8 -90 8 -81 0 -115 2 -205 9 -49 4 -119 3
-165 -4 -44 -6 -148 -12 -231 -13 l-151 -2 -25 48 c-81 153 -189 323 -371 581
-39 57 -110 159 -157 228 -47 69 -101 146 -121 172 -20 26 -47 66 -60 89 -13
23 -72 113 -130 200 l-106 158 13 200 c7 110 13 216 13 235 l1 36 76 19 76 19
42 -24 c24 -13 50 -21 57 -18 25 10 41 116 37 249 -3 116 -5 128 -35 191 -18
37 -33 70 -33 74 0 4 -24 44 -54 88 -53 79 -218 249 -339 350 -48 41 -60 57
-74 105 -17 61 -31 84 -125 213 -35 47 -102 140 -150 206 -130 178 -188 307
-188 420 0 36 -39 277 -80 502 -21 110 -21 118 -6 210 10 59 16 156 16 249 l0
153 51 136 c82 219 117 366 151 631 18 141 21 215 20 491 l0 325 186 -191
c270 -274 462 -445 697 -616 94 -69 276 -163 335 -174 19 -4 51 -15 70 -24 19
-10 64 -30 100 -45 36 -16 89 -44 119 -64 149 -100 140 -96 220 -99 42 -2 125
1 184 6 96 8 112 12 150 39 36 26 95 115 97 146 1 18 -21 5 -34 -21 -23 -44
-85 -82 -134 -82 -23 0 -42 5 -42 10 0 6 -6 10 -14 10 -8 0 -24 12 -36 28 -23
29 -164 115 -218 133 -18 6 -30 14 -27 19 2 4 -14 10 -37 14 -22 4 -46 10 -52
14 -6 4 -13 7 -16 8 -14 2 -60 28 -60 34 0 3 -26 17 -57 30 -32 12 -69 34 -82
48 -14 14 -27 20 -29 14 -4 -13 -82 24 -82 39 0 5 -17 9 -38 9 -24 0 -46 7
-60 20 -12 11 -26 20 -32 20 -5 0 -10 4 -10 10 0 5 -16 12 -35 16 -19 3 -35
10 -35 14 0 6 -42 28 -169 89 -19 9 -39 28 -45 44 -9 22 -27 34 -38 25 -7 -5
-66 37 -62 44 3 4 -8 10 -23 14 -15 4 -35 12 -43 19 -14 11 -48 27 -62 29 -13
2 -58 57 -58 72 0 7 -5 14 -11 14 -6 0 -30 16 -53 35 -24 19 -46 35 -50 35
-11 0 -36 27 -36 39 0 6 -10 11 -21 11 -16 0 -20 5 -16 19 4 16 -2 21 -24 26
-16 4 -29 13 -29 21 0 8 -4 14 -9 14 -4 0 -19 10 -33 23 -14 12 -43 39 -66 60
-23 20 -46 37 -51 37 -6 0 -18 11 -27 25 -9 14 -25 25 -35 25 -11 0 -19 5 -19
10 0 6 5 10 11 10 5 0 7 5 4 10 -4 6 -10 8 -14 6 -4 -3 -22 11 -40 29 -18 19
-37 35 -42 35 -5 0 -27 17 -49 38 -63 60 -84 78 -103 85 -9 3 -17 16 -17 27 0
11 -11 30 -25 42 -14 12 -25 28 -25 35 0 7 -5 13 -11 13 -5 0 -7 5 -4 10 3 6
0 10 -9 10 -21 0 -78 60 -72 76 6 14 -30 64 -46 64 -6 0 -25 12 -44 28 -18 15
-44 36 -58 47 -13 10 -22 23 -20 27 3 4 -7 13 -21 18 -14 5 -24 14 -20 19 3 5
-5 13 -17 16 -32 10 -78 62 -72 80 4 9 0 15 -10 15 -18 0 -50 45 -42 58 6 10
-25 22 -60 22 -11 0 -29 9 -39 20 -13 14 -31 20 -62 20 -37 0 -45 4 -53 24 -5
13 -15 26 -22 29 -10 4 -9 9 4 20 19 15 14 27 -10 27 -9 0 -22 7 -31 15 -9 8
-33 28 -53 45 -40 33 -83 112 -75 134 3 8 -3 22 -14 32 -10 9 -19 25 -19 36 0
10 -7 18 -17 18 -15 0 -15 1 1 19 15 17 15 19 1 25 -9 3 -27 6 -40 6 -12 0
-28 7 -35 15 -7 8 -23 15 -35 15 -13 0 -26 7 -29 16 -8 20 -32 12 -123 -41
-72 -42 -163 -135 -163 -167 0 -8 -9 -23 -20 -33 -12 -10 -30 -39 -41 -64 -29
-66 -67 -103 -99 -96 l-25 5 21 -18 c16 -14 19 -23 12 -35 -12 -23 -61 -22
-82 2 -15 17 -16 25 -6 55 10 32 14 35 37 29 23 -5 25 -4 19 13 -38 93 -32
151 28 268 25 50 46 97 46 106 0 19 58 76 122 119 57 38 101 92 92 114 -5 13
-17 11 -89 -14 -46 -16 -102 -31 -124 -35 l-39 -6 -11 -62 c-6 -35 -11 -73
-11 -85 0 -12 -7 -33 -16 -46 -10 -16 -14 -37 -11 -57 2 -18 1 -43 -4 -55 -8
-23 -15 -23 -64 -3 -11 4 -35 14 -54 21 -39 14 -71 61 -71 104 0 17 -4 37 -9
44 -8 12 -11 9 -16 -12 -10 -39 -10 -136 -1 -180 10 -45 -12 -77 -53 -77 -36
0 -47 10 -56 48 -5 26 -3 36 11 47 16 11 17 17 6 36 -17 36 -40 109 -47 154
-5 32 2 64 33 155 22 63 43 126 47 139 l7 23 -30 -17 c-16 -10 -36 -29 -45
-44 -23 -38 -91 -108 -129 -131 -36 -22 -107 -27 -140 -9 -30 16 -32 5 -5 -27
33 -38 100 -38 174 -1 29 15 55 27 59 27 3 0 4 -15 0 -32 -3 -18 -9 -51 -13
-73 -4 -22 -6 -55 -6 -72 1 -22 -3 -33 -12 -33 -7 0 -15 4 -17 10 -1 5 -40
-19 -85 -54 -168 -130 -298 -176 -492 -176 -127 0 -186 10 -441 76 -174 44
-210 55 -415 119 -93 30 -208 64 -255 75 -205 50 -302 89 -339 136 -62 79 -29
226 133 583 31 68 55 127 54 131 -2 4 -16 1 -33 -6z m2802 -1050 c30 -22 37
-34 79 -129 15 -33 34 -68 42 -77 11 -13 12 -18 2 -18 -9 0 -8 -7 4 -25 23
-35 20 -38 -19 -32 -19 3 -48 2 -65 -3 -34 -10 -96 4 -121 26 -9 8 -39 20 -65
27 -34 8 -52 19 -59 35 -5 12 -15 20 -22 18 -17 -7 -52 55 -49 86 8 73 82 119
183 115 45 -2 71 -9 90 -23z m-1351 -7707 c13 -16 28 -26 34 -22 5 3 14 -3 19
-14 8 -13 17 -18 33 -14 13 3 20 2 15 -2 -17 -19 -137 -29 -372 -31 -137 -1
-269 -5 -292 -9 -23 -4 -71 -4 -107 0 l-66 7 15 26 c26 51 60 80 95 85 19 3
163 4 318 3 l284 -1 24 -28z m8360 -130 c4 -4 -56 -7 -134 -7 -77 0 -143 4
-146 9 -7 11 270 9 280 -2z m-9481 -364 c5 -10 9 -28 10 -41 2 -18 -2 -21 -19
-16 -26 8 -56 34 -38 34 7 0 12 9 12 20 0 25 25 26 35 3z m-175 -58 c7 -17 5
-35 -6 -60 -14 -35 -15 -35 -44 -20 -16 8 -41 15 -55 15 -33 0 -25 17 29 59
47 37 64 39 76 6z m1394 -1131 c30 -37 34 -69 8 -83 -10 -5 -45 -10 -78 -10
-32 -1 -74 -1 -92 -1 -24 -1 -33 3 -29 12 2 7 16 12 31 10 22 -2 26 1 26 22 0
14 -4 28 -10 31 -14 9 -13 42 2 47 7 3 35 4 64 4 45 -1 54 -5 78 -32z m-394
16 c0 -5 -7 -7 -15 -4 -8 4 -15 8 -15 10 0 2 7 4 15 4 8 0 15 -4 15 -10z m146
-5 c18 -14 18 -14 -8 -15 -14 0 -33 -3 -42 -6 -11 -4 -14 0 -13 15 2 25 34 28
63 6z m2914 1 c0 -8 -4 -18 -10 -21 -13 -8 -13 -65 1 -65 5 0 8 -4 4 -9 -8
-14 -95 -8 -95 7 0 6 -4 12 -10 12 -5 0 -10 -5 -10 -12 0 -6 -3 -8 -6 -5 -10
10 39 57 59 57 9 0 18 5 18 10 1 6 3 15 4 20 1 6 3 12 4 15 3 12 41 3 41 -9z
m-8810 -4 c0 -4 -9 -8 -19 -8 -11 0 -17 4 -15 8 3 4 12 8 20 8 8 0 14 -4 14
-8z m390 -2 c0 -5 8 -10 18 -11 10 0 12 -3 4 -6 -6 -2 -10 -9 -7 -13 3 -5 -4
-14 -15 -20 -11 -6 -18 -15 -15 -19 2 -5 -9 -11 -25 -13 -17 -3 -30 -1 -30 4
0 4 5 8 10 8 6 0 10 18 10 40 0 36 3 40 25 40 14 0 25 -4 25 -10z m-523 -42
c-7 -4 10 -8 36 -8 72 0 39 -25 -43 -33 -36 -3 -75 -9 -87 -13 -33 -9 -30 17
5 54 27 28 30 29 65 19 22 -7 31 -14 24 -19z m2148 -28 c-6 -18 -14 -20 -64
-18 -40 2 -65 -2 -82 -14 -19 -12 -30 -13 -45 -5 -28 15 -28 14 -11 41 12 18
13 26 4 29 -6 2 -3 3 8 1 109 -16 145 -16 145 -1 0 8 6 17 13 20 18 6 39 -30
32 -53z m312 44 c-3 -3 -12 -4 -19 -1 -8 3 -5 6 6 6 11 1 17 -2 13 -5z m1741
-17 c10 2 27 10 39 16 30 14 35 7 21 -30 -14 -38 -36 -43 -200 -43 -110 0
-168 11 -168 32 0 12 15 16 75 22 28 3 68 9 90 14 27 6 54 4 83 -4 24 -7 51
-10 60 -7z m-1832 -12 c-3 -8 -1 -15 3 -15 5 0 12 7 15 16 6 15 19 16 99 10
78 -5 95 -10 111 -29 10 -12 24 -20 30 -18 18 5 122 9 107 4 -10 -4 -11 -7 -1
-13 38 -24 -41 -41 -94 -20 -17 6 -27 6 -32 -1 -5 -9 -87 -9 -311 0 -7 1 -13
11 -13 24 0 13 -6 29 -12 36 -11 11 -10 13 3 8 9 -3 22 -1 30 4 8 5 27 9 43 9
21 0 27 -4 22 -15z m661 4 c-14 -8 -22 -8 -30 0 -8 8 -3 11 19 11 25 -1 27 -2
11 -11z m-815 -29 c4 -27 2 -31 -16 -28 -19 3 -22 10 -17 48 3 24 29 8 33 -20z
m565 24 c-3 -3 -12 -4 -19 -1 -8 3 -5 6 6 6 11 1 17 -2 13 -5z m2978 -19 c0
-15 -8 -21 -33 -23 l-33 -3 17 26 c19 30 49 30 49 0z m-2900 5 c-3 -5 -11 -10
-16 -10 -6 0 -7 5 -4 10 3 6 11 10 16 10 6 0 7 -4 4 -10z m6181 -52 c-3 -13
-6 -29 -6 -35 0 -7 -9 -13 -20 -13 -15 0 -20 7 -20 28 0 34 6 42 33 42 15 0
18 -5 13 -22z m-9171 -170 c-5 -97 -12 -143 -25 -171 -18 -37 -17 -67 2 -67 5
0 8 -15 6 -32 -3 -28 -7 -33 -30 -33 -14 0 -30 -3 -34 -7 -4 -5 -15 -8 -25 -8
-9 0 -19 -6 -22 -12 -6 -18 -15 -7 -17 22 -4 46 0 59 21 65 19 6 19 8 5 30
-10 16 -12 25 -4 33 6 6 10 23 10 39 0 15 11 42 24 60 16 21 20 34 13 39 -8 5
-8 8 0 14 9 5 8 17 -3 46 -8 21 -14 50 -13 64 2 22 7 25 35 22 22 -1 35 3 38
13 4 8 11 15 16 15 7 0 8 -45 3 -132z m9128 35 c-16 -6 -4 -33 14 -33 8 0 12
4 8 9 -3 5 -1 12 5 16 6 4 7 11 4 17 -5 7 -2 8 5 4 7 -5 10 -15 6 -23 -3 -9 2
-24 10 -33 11 -12 13 -20 6 -25 -13 -8 -15 -45 -2 -45 9 0 19 -40 26 -98 3
-31 -15 -58 -23 -34 -2 7 -13 12 -23 12 -11 0 -17 -4 -14 -10 3 -5 -1 -10 -10
-10 -16 0 -26 17 -30 48 -1 10 -9 33 -17 52 -9 19 -19 63 -22 97 -6 54 -4 62
11 65 22 5 62 -4 46 -9z m65 -295 c8 -8 12 -49 12 -120 0 -96 -2 -108 -17
-109 -11 0 -13 -3 -5 -6 25 -10 1 -22 -36 -17 -28 3 -32 2 -17 -5 18 -9 17
-10 -7 -10 -25 -1 -28 3 -28 29 0 17 5 30 13 30 9 0 8 3 -2 9 -11 7 -11 14 3
42 15 30 15 35 1 45 -22 16 -19 80 5 104 22 22 60 26 78 8z m-88 -288 c0 -5
-5 -10 -11 -10 -5 0 -7 5 -4 10 3 6 8 10 11 10 2 0 4 -4 4 -10z"/>
<path d="M6779 1949 c-11 -21 -10 -21 27 -14 45 8 48 10 39 24 -11 19 -54 12
-66 -10z"/>
<path d="M9630 1490 c-13 -8 -13 -10 2 -10 9 0 20 5 23 10 8 13 -5 13 -25 0z"/>
<path d="M9660 1280 c0 -5 5 -10 10 -10 6 0 10 5 10 10 0 6 -4 10 -10 10 -5 0
-10 -4 -10 -10z"/>
<path d="M12938 11693 c7 -3 16 -2 19 1 4 3 -2 6 -13 5 -11 0 -14 -3 -6 -6z"/>
<path d="M13350 11615 c-10 -12 -10 -15 4 -15 9 0 16 7 16 15 0 8 -2 15 -4 15
-2 0 -9 -7 -16 -15z"/>
<path d="M3439 11606 c-3 -3 -41 -8 -85 -10 -43 -3 -101 -8 -129 -11 -27 -3
-73 -7 -101 -9 -27 -1 -56 -6 -63 -10 -7 -5 -34 -8 -60 -7 -43 1 -128 -13
-161 -27 -8 -3 -33 -7 -55 -8 -86 -5 -142 -11 -151 -16 -19 -11 -83 -18 -88
-10 -3 5 -29 2 -58 -8 -29 -9 -80 -20 -112 -24 -71 -8 -126 -38 -121 -66 2
-10 -3 -24 -11 -31 -18 -15 -39 1 -48 37 -6 22 -11 25 -34 20 -56 -12 -269
-39 -317 -40 -58 0 -104 7 -133 23 -11 6 -34 11 -50 11 -18 0 -32 6 -36 16
-10 26 -21 8 -30 -46 -1 -9 -5 -20 -9 -26 -7 -13 67 -29 84 -18 15 9 139 -7
139 -19 0 -6 -3 -7 -7 -4 -3 4 -11 3 -17 -2 -15 -13 -40 -14 -178 -13 -100 2
-117 4 -112 17 4 8 16 18 28 21 12 3 27 13 33 23 15 24 -17 61 -52 61 -14 0
-25 3 -25 8 0 25 -156 44 -190 22 -11 -7 -2 -10 29 -10 32 0 42 -3 38 -14 -3
-7 -1 -18 5 -24 14 -14 1 -32 -22 -32 -26 0 -33 15 -15 30 8 7 12 16 10 21 -8
12 -89 -1 -98 -16 -9 -17 -64 -16 -78 1 -16 20 -2 34 34 34 24 1 28 3 17 10
-14 7 -107 -5 -119 -16 -3 -2 4 -10 14 -18 17 -12 16 -14 -13 -32 -18 -10 -32
-22 -32 -26 0 -11 -48 -10 -71 2 -10 6 -19 19 -19 28 0 23 -19 42 -42 42 -10
0 -30 7 -44 16 -19 13 -40 15 -92 11 -58 -5 -70 -3 -89 15 -38 35 -211 26
-262 -13 -24 -20 -45 -15 -71 15 -16 20 -24 20 -67 0 -32 -16 -37 -16 -66 -1
-18 9 -40 22 -49 29 -14 10 -21 9 -36 -6 -13 -11 -22 -14 -27 -7 -3 6 -19 11
-36 11 -19 0 -29 5 -29 15 0 16 -17 19 -44 9 -14 -5 -16 -59 -16 -502 l0 -495
348 6 c593 11 868 24 894 41 16 10 71 17 188 23 l165 8 3 32 c2 25 -1 33 -18
38 -13 4 -28 1 -38 -9 -14 -12 -39 -14 -122 -13 -127 3 -141 9 -101 43 22 18
41 24 77 24 52 0 91 15 64 24 -8 2 -29 9 -47 14 -17 6 -40 8 -51 5 -35 -9
-148 64 -129 83 3 4 620 8 1369 9 986 1 1372 5 1397 13 19 6 61 13 92 14 67 3
61 -8 80 143 17 142 25 193 45 302 14 79 15 106 6 115 -6 6 -60 14 -126 18
-62 3 -120 11 -127 17 -8 6 -36 14 -64 18 -27 4 -59 15 -69 24 -14 12 -20 13
-23 4 -3 -9 -12 -8 -31 5 -14 9 -23 11 -19 5 5 -7 4 -13 -2 -13 -5 0 -11 5
-13 12 -2 6 -24 11 -51 11 -29 0 -43 4 -35 9 9 5 6 8 -9 8 -12 0 -24 4 -27 9
-3 5 -23 11 -43 14 -104 15 -138 18 -144 13z m-2289 -206 c0 -5 -7 -10 -16
-10 -8 0 -12 5 -9 10 3 6 10 10 16 10 5 0 9 -4 9 -10z m296 -41 c3 -5 -10 -7
-28 -5 -18 3 -37 5 -41 5 -5 1 -6 5 -3 9 6 11 64 3 72 -9z m474 -40 c0 -14
-39 -20 -60 -9 -21 11 -21 12 -4 25 13 9 24 10 41 2 13 -6 23 -14 23 -18z
m337 5 c-3 -3 -12 -4 -19 -1 -8 3 -5 6 6 6 11 1 17 -2 13 -5z m16 -20 c12 -12
-6 -34 -28 -34 -31 0 -40 16 -18 29 21 12 37 14 46 5z"/>
<path d="M14505 11453 c-22 -8 -44 -18 -49 -24 -14 -13 -26 -11 -26 5 0 50
-103 7 -105 -44 0 -10 -9 -14 -27 -12 -20 2 -28 -2 -28 -13 0 -17 -32 -20 -58
-6 -15 8 -77 17 -130 20 -7 1 -10 6 -6 13 5 8 2 9 -12 3 -10 -4 -36 -7 -57 -6
-20 1 -67 -6 -103 -15 -36 -9 -73 -14 -83 -11 -10 2 -40 0 -67 -4 -27 -5 -77
-11 -112 -15 -52 -4 -63 -3 -68 11 -5 12 -14 15 -30 11 -15 -4 -24 -2 -24 5 0
8 -17 10 -54 6 -41 -4 -58 -2 -67 9 -11 14 -52 10 -74 -7 -6 -4 -17 -4 -25 1
-7 4 -23 5 -34 0 -12 -4 -45 -5 -73 -3 -34 4 -58 1 -68 -7 -11 -9 -31 -10 -72
-5 -80 11 -322 9 -336 -3 -7 -6 -35 -6 -67 -2 -30 5 -74 6 -97 3 -28 -4 -43
-2 -43 5 0 24 -36 31 -89 17 -39 -10 -87 -12 -179 -8 -70 4 -140 6 -157 6 -82
-1 -246 -14 -290 -22 -88 -17 -121 -14 -150 15 -17 16 -48 31 -86 40 -59 14
-61 13 -78 -8 -23 -28 -63 -30 -129 -7 -28 10 -62 19 -75 19 -12 1 -50 3 -84
6 -57 5 -66 3 -103 -23 -22 -15 -42 -35 -45 -45 -3 -9 -12 -22 -21 -28 -11
-10 -18 -9 -34 5 -16 15 -24 16 -47 7 -35 -14 -99 -10 -278 18 -183 29 -221
33 -249 26 -21 -5 -23 -9 -16 -38 15 -66 112 -293 147 -346 20 -30 59 -79 87
-109 l50 -55 415 6 c229 3 436 5 461 4 25 -2 128 -2 230 -1 213 2 421 3 500 2
30 -1 260 -1 510 -1 474 0 498 0 568 -12 28 -5 47 -4 57 4 10 8 61 10 182 7
92 -3 200 -5 238 -4 39 0 102 0 140 -1 73 -1 191 -1 313 2 39 0 72 5 72 10 0
5 22 6 48 2 31 -4 66 -1 100 9 50 15 56 15 105 -3 38 -13 70 -17 115 -14 43 3
67 0 79 -9 13 -11 93 -15 400 -17 l383 -3 0 280 0 281 -26 -10 c-14 -6 -35
-10 -47 -9 -21 0 -21 1 -2 9 11 5 14 9 7 9 -7 1 -23 -4 -34 -10 -16 -9 -28 -7
-57 9 -45 24 -117 36 -127 21 -6 -11 -47 -8 -101 7 -17 5 -23 2 -23 -11 0 -14
-6 -16 -37 -10 -27 4 -44 1 -58 -9 -11 -9 -30 -16 -41 -16 -12 0 -34 -6 -50
-14 -27 -15 -64 -7 -64 13 0 4 -16 27 -37 50 l-36 43 -91 -3 c-50 -2 -102 1
-115 5 -15 5 -32 3 -47 -5 -20 -10 -27 -10 -42 4 -10 10 -20 16 -23 16 -2 -1
-22 -8 -44 -16z m-537 -160 c3 -20 -21 -53 -38 -53 -5 0 -14 16 -20 36 -10 29
-10 38 0 44 20 12 55 -5 58 -27z m-492 -9 c-3 -9 -6 -18 -6 -20 0 -2 -10 -4
-22 -4 -20 0 -21 1 -3 20 22 24 40 26 31 4z"/>
<path d="M12814 9939 c-3 -5 6 -9 20 -9 31 0 34 6 6 13 -11 3 -23 1 -26 -4z"/>
<path d="M473 9693 c9 -2 25 -2 35 0 9 3 1 5 -18 5 -19 0 -27 -2 -17 -5z"/>
<path d="M15465 9360 c-4 -6 3 -10 14 -10 25 0 27 6 6 13 -8 4 -17 2 -20 -3z"/>
<path d="M14963 9293 c9 -2 23 -2 30 0 6 3 -1 5 -18 5 -16 0 -22 -2 -12 -5z"/>
<path d="M4107 9148 c15 -67 65 -218 73 -223 6 -3 10 -17 10 -31 0 -55 42 -87
53 -41 9 35 -2 82 -32 139 -16 29 -37 69 -47 88 -11 19 -22 37 -25 40 -4 3 -9
15 -13 28 -4 12 -11 22 -16 22 -4 0 -6 -10 -3 -22z"/>
<path d="M11633 9158 c-6 -7 -13 -22 -17 -33 -5 -16 -2 -15 14 5 18 23 25 40
16 40 -2 0 -8 -6 -13 -12z"/>
<path d="M11590 9089 c0 -5 5 -7 10 -4 6 3 10 8 10 11 0 2 -4 4 -10 4 -5 0
-10 -5 -10 -11z"/>
<path d="M12808 9043 c7 -3 16 -2 19 1 4 3 -2 6 -13 5 -11 0 -14 -3 -6 -6z"/>
<path d="M10158 8993 c7 -3 16 -2 19 1 4 3 -2 6 -13 5 -11 0 -14 -3 -6 -6z"/>
<path d="M10268 8979 c15 -6 30 -5 40 1 13 7 8 9 -23 9 -35 0 -37 -1 -17 -10z"/>
<path d="M11590 8950 c-18 -12 -2 -12 25 0 13 6 15 9 5 9 -8 0 -22 -4 -30 -9z"/>
<path d="M13956 8902 c-11 -18 8 -21 60 -13 27 5 39 9 28 10 -12 0 -35 4 -52
7 -16 3 -32 1 -36 -4z"/>
<path d="M1770 8700 c8 -5 42 -9 75 -9 43 0 54 3 40 9 -29 12 -134 12 -115 0z"/>
<path d="M1923 8693 c9 -2 25 -2 35 0 9 3 1 5 -18 5 -19 0 -27 -2 -17 -5z"/>
<path d="M8 8673 c7 -3 16 -2 19 1 4 3 -2 6 -13 5 -11 0 -14 -3 -6 -6z"/>
<path d="M13286 8642 c-6 -10 82 -28 92 -18 9 10 -1 15 -45 22 -23 3 -43 2
-47 -4z"/>
<path d="M13445 8640 c-4 -6 18 -10 60 -10 42 0 64 4 60 10 -3 6 -30 10 -60
10 -30 0 -57 -4 -60 -10z"/>
<path d="M15395 8640 c-9 -14 37 -31 50 -19 6 7 5 13 -5 19 -20 13 -37 12 -45
0z"/>
<path d="M15492 8643 c-20 -8 -3 -23 26 -23 39 0 73 11 66 21 -5 9 -70 11 -92
2z"/>
<path d="M60 8630 c-11 -7 -7 -10 18 -10 20 0 31 4 27 10 -8 13 -26 13 -45 0z"/>
<path d="M1375 8630 c3 -5 12 -10 20 -10 8 0 17 5 20 10 4 6 -5 10 -20 10 -15
0 -24 -4 -20 -10z"/>
<path d="M240 8620 c0 -5 16 -10 36 -10 21 0 33 4 29 10 -3 6 -19 10 -36 10
-16 0 -29 -4 -29 -10z"/>
<path d="M13550 8530 c-20 -7 -16 -8 23 -9 26 -1 47 4 47 9 0 12 -34 12 -70 0z"/>
<path d="M14474 8512 c-6 -4 -11 -22 -12 -39 -1 -27 3 -33 19 -33 11 0 27 7
36 16 10 10 25 13 43 9 31 -7 100 17 100 34 0 6 -15 11 -32 12 -18 0 -58 3
-88 5 -30 2 -60 0 -66 -4z"/>
<path d="M15143 8493 c-27 -10 -11 -23 27 -23 29 0 40 4 40 15 0 15 -39 20
-67 8z"/>
<path d="M15303 8493 c-7 -2 -13 -11 -13 -19 0 -11 17 -14 76 -14 80 0 93 13
21 23 -23 3 -49 8 -57 11 -8 2 -21 2 -27 -1z"/>
<path d="M14822 8471 c-10 -6 -6 -11 17 -19 33 -12 56 3 30 19 -18 11 -30 11
-47 0z"/>
<path d="M11243 8413 c-51 -2 -93 -8 -93 -13 0 -12 5 -12 133 -12 89 0 118 4
106 16 -9 9 -58 12 -146 9z"/>
<path d="M10341 8401 c-25 -16 6 -21 126 -22 145 -1 138 -2 123 16 -10 12 -37
15 -124 15 -61 0 -117 -4 -125 -9z"/>
<path d="M10857 8404 c-18 -19 -2 -25 58 -22 36 2 66 8 68 13 2 11 -115 20
-126 9z"/>
<path d="M15250 8271 c0 -6 5 -13 10 -16 6 -3 10 1 10 9 0 9 -4 16 -10 16 -5
0 -10 -4 -10 -9z"/>
<path d="M14772 8248 c-12 -12 -17 -48 -7 -48 3 0 13 4 23 9 9 6 30 12 45 16
16 3 27 11 24 18 -5 17 -69 21 -85 5z"/>
<path d="M13428 8224 c-22 -22 44 -32 87 -14 17 7 16 9 -10 9 -16 1 -39 4 -50
7 -11 3 -24 2 -27 -2z"/>
<path d="M15065 8220 c-3 -5 -2 -10 4 -10 5 0 13 5 16 10 3 6 2 10 -4 10 -5 0
-13 -4 -16 -10z"/>
<path d="M13208 8213 c6 -2 18 -2 25 0 6 3 1 5 -13 5 -14 0 -19 -2 -12 -5z"/>
<path d="M10330 8190 c-12 -8 -9 -10 13 -10 15 0 27 5 27 10 0 13 -20 13 -40
0z"/>
<path d="M14590 8180 c-21 -5 -22 -7 -8 -13 10 -3 28 -3 40 2 28 10 2 20 -32
11z"/>
<path d="M12205 8170 c3 -5 12 -10 20 -10 8 0 17 5 20 10 4 6 -5 10 -20 10
-15 0 -24 -4 -20 -10z"/>
<path d="M837 8163 c-43 -2 -75 -8 -72 -13 7 -11 237 -1 249 11 10 9 -8 9
-177 2z"/>
<path d="M13150 8160 c-8 -5 -12 -11 -10 -14 8 -8 100 6 100 15 0 12 -71 11
-90 -1z"/>
<path d="M1912 8148 c25 -7 43 -6 55 1 14 8 6 10 -37 10 -55 -1 -55 -1 -18
-11z"/>
<path d="M1803 8143 c15 -2 37 -2 50 0 12 2 0 4 -28 4 -27 0 -38 -2 -22 -4z"/>
<path d="M14942 8138 c5 -15 57 -18 61 -3 1 6 -13 11 -32 13 -24 3 -32 0 -29
-10z"/>
<path d="M315 8050 c3 -5 19 -10 35 -10 16 0 32 5 35 10 4 6 -10 10 -35 10
-25 0 -39 -4 -35 -10z"/>
<path d="M5100 8048 c0 -9 5 -20 11 -23 17 -11 18 -2 3 19 -12 17 -14 17 -14
4z"/>
<path d="M390 8020 c20 -13 73 -13 65 0 -3 6 -23 10 -43 10 -28 0 -33 -3 -22
-10z"/>
<path d="M15 8010 c-16 -7 -14 -9 13 -7 19 1 36 5 38 9 7 10 -26 9 -51 -2z"/>
<path d="M13703 7993 c-22 -8 -14 -23 11 -23 33 0 57 10 50 21 -6 10 -41 11
-61 2z"/>
<path d="M915 7960 c-18 -8 -17 -9 7 -9 15 -1 30 4 33 9 7 12 -12 12 -40 0z"/>
<path d="M1268 7963 c12 -2 30 -2 40 0 9 3 -1 5 -23 4 -22 0 -30 -2 -17 -4z"/>
<path d="M4271 7815 c2 -90 7 -139 15 -146 9 -7 13 0 16 26 2 20 0 39 -5 42
-4 3 -7 15 -6 26 5 69 -2 187 -12 187 -7 0 -10 -44 -8 -135z"/>
<path d="M258 7923 c7 -3 16 -2 19 1 4 3 -2 6 -13 5 -11 0 -14 -3 -6 -6z"/>
<path d="M12650 7880 c20 -13 57 -13 65 0 4 6 -11 10 -37 10 -31 0 -39 -3 -28
-10z"/>
<path d="M14378 7883 c7 -3 16 -2 19 1 4 3 -2 6 -13 5 -11 0 -14 -3 -6 -6z"/>
<path d="M14420 7870 c0 -5 5 -10 10 -10 6 0 10 5 10 10 0 6 -4 10 -10 10 -5
0 -10 -4 -10 -10z"/>
<path d="M12923 7833 c-12 -4 -19 -33 -9 -33 16 0 56 21 56 30 0 10 -25 12
-47 3z"/>
<path d="M11635 7820 c3 -5 12 -7 20 -3 21 7 19 13 -6 13 -11 0 -18 -4 -14
-10z"/>
<path d="M12215 7820 c3 -5 15 -10 26 -10 10 0 19 5 19 10 0 6 -12 10 -26 10
-14 0 -23 -4 -19 -10z"/>
<path d="M1520 7800 c8 -5 31 -10 50 -10 19 0 42 5 50 10 11 7 -4 10 -50 10
-46 0 -61 -3 -50 -10z"/>
<path d="M1678 7778 c8 -8 17 -8 34 0 22 10 21 11 -11 11 -27 1 -32 -2 -23
-11z"/>
<path d="M1940 7779 c-66 -5 -61 -6 45 -6 66 -1 129 2 140 7 22 10 -55 9 -185
-1z"/>
<path d="M15030 7751 c0 -14 29 -22 57 -15 18 5 21 9 11 15 -17 11 -68 11 -68
0z"/>
<path d="M11163 7630 c-28 -12 -29 -21 -3 -38 16 -10 30 -9 75 6 54 17 72 32
38 32 -10 0 -34 2 -53 5 -19 3 -45 0 -57 -5z"/>
<path d="M12320 7633 c-59 -7 -54 -20 7 -18 72 3 73 3 73 15 0 10 -14 10 -80
3z"/>
<path d="M11865 7620 c-11 -4 18 -9 72 -13 96 -7 136 -2 111 14 -15 10 -154
10 -183 -1z"/>
<path d="M15173 7603 c-45 -17 20 -36 116 -35 66 1 81 6 65 21 -10 10 -162 21
-181 14z"/>
<path d="M15407 7604 c-12 -12 4 -24 32 -24 16 0 34 7 41 15 11 13 7 15 -27
15 -22 0 -43 -3 -46 -6z"/>
<path d="M126 7591 c-8 -12 38 -23 60 -14 16 6 16 7 -2 14 -27 11 -52 11 -58
0z"/>
<path d="M12756 7591 c-19 -7 -18 -8 4 -14 33 -8 77 2 58 14 -16 10 -36 10
-62 0z"/>
<path d="M15090 7590 c0 -5 9 -10 21 -10 11 0 17 5 14 10 -3 6 -13 10 -21 10
-8 0 -14 -4 -14 -10z"/>
<path d="M13760 7580 c0 -5 9 -10 19 -10 11 0 23 5 26 10 4 6 -5 10 -19 10
-14 0 -26 -4 -26 -10z"/>
<path d="M278 7573 c7 -3 16 -2 19 1 4 3 -2 6 -13 5 -11 0 -14 -3 -6 -6z"/>
<path d="M12783 7478 c-18 -6 -33 -17 -33 -24 0 -19 36 -18 44 1 3 8 12 15 21
15 8 0 15 5 15 10 0 12 -4 11 -47 -2z"/>
<path d="M566 7391 c-3 -5 5 -11 19 -13 31 -6 75 1 75 13 0 12 -87 12 -94 0z"/>
<path d="M1516 7389 c3 -5 24 -9 46 -9 51 0 47 5 -10 13 -24 3 -40 1 -36 -4z"/>
<path d="M695 7380 c-15 -7 -10 -9 23 -9 23 -1 42 4 42 9 0 12 -37 12 -65 0z"/>
<path d="M290 7370 c20 -13 113 -13 105 0 -3 6 -32 10 -63 10 -41 0 -53 -3
-42 -10z"/>
<path d="M1934 7367 c-12 -7 -13 -12 -3 -23 8 -10 33 -14 83 -14 39 1 82 0 96
0 37 -2 101 14 103 25 3 13 -258 23 -279 12z"/>
<path d="M2340 7340 c0 -5 3 -10 8 -11 4 0 21 -2 37 -4 17 -3 39 -1 50 2 17 6
16 8 -10 14 -46 10 -85 10 -85 -1z"/>
<path d="M13207 7323 c-14 -14 -6 -23 21 -23 37 0 72 10 72 21 0 10 -83 12
-93 2z"/>
<path d="M13373 7310 c-3 -12 -18 -27 -34 -36 -39 -20 -36 -32 9 -36 22 -2 36
-8 35 -15 -3 -14 19 -8 55 15 17 11 20 18 11 28 -6 8 -22 14 -35 14 -13 0 -24
5 -24 11 0 6 9 8 20 4 11 -3 28 -2 37 4 16 9 15 11 -10 20 -41 16 -58 13 -64
-9z"/>
<path d="M12794 7238 c-3 -5 -15 -6 -26 -2 -26 8 -98 -24 -98 -44 0 -12 12
-14 71 -8 39 3 79 11 89 16 10 6 31 10 47 10 36 0 65 16 43 24 -31 10 -121 13
-126 4z"/>
<path d="M15153 7234 c-21 -9 -15 -21 16 -34 20 -8 51 -9 96 -5 57 6 64 9 48
20 -20 14 -140 28 -160 19z"/>
<path d="M11410 7170 c-23 -14 -9 -20 75 -27 64 -5 77 -4 73 8 -8 25 -116 39
-148 19z"/>
<path d="M15170 7160 c0 -5 5 -10 10 -10 6 0 10 5 10 10 0 6 -4 10 -10 10 -5
0 -10 -4 -10 -10z"/>
<path d="M478 7113 c12 -2 30 -2 40 0 9 3 -1 5 -23 4 -22 0 -30 -2 -17 -4z"/>
<path d="M750 7051 c-16 -5 -21 -9 -13 -14 17 -11 113 -21 113 -13 0 6 -65 38
-72 35 -2 -1 -14 -4 -28 -8z"/>
<path d="M14313 7018 c-45 -12 -46 -20 -7 -52 33 -26 38 -27 77 -17 23 6 66
12 96 13 36 2 56 8 59 17 4 11 -2 13 -26 8 -23 -5 -33 -2 -44 12 -15 22 -103
32 -155 19z"/>
<path d="M15213 7018 c-63 -17 -29 -38 60 -38 57 0 60 17 6 35 -22 8 -46 9
-66 3z"/>
<path d="M13726 6996 c-23 -11 -25 -14 -11 -19 24 -10 68 -8 85 3 13 9 13 11
0 20 -19 13 -38 11 -74 -4z"/>
<path d="M12566 6991 c-3 -5 1 -12 10 -15 27 -10 44 -7 44 9 0 16 -45 21 -54
6z"/>
<path d="M14176 6981 c-4 -5 3 -7 14 -4 23 6 26 13 6 13 -8 0 -17 -4 -20 -9z"/>
<path d="M13118 6970 c-36 -9 -33 -34 7 -53 42 -20 94 -22 119 -4 48 35 -44
76 -126 57z"/>
<path d="M13945 6955 l-30 -13 35 -3 c42 -3 113 1 119 7 19 19 -85 27 -124 9z"/>
<path d="M13285 6943 c-17 -17 -17 -18 19 -25 40 -9 80 5 73 25 -6 20 -72 20
-92 0z"/>
<path d="M13440 6925 c-17 -20 9 -21 36 0 19 14 19 14 -2 15 -12 0 -27 -7 -34
-15z"/>
<path d="M14760 6861 c0 -12 78 -29 103 -23 24 6 21 18 -5 26 -35 9 -98 7 -98
-3z"/>
<path d="M14858 6803 c7 -3 16 -2 19 1 4 3 -2 6 -13 5 -11 0 -14 -3 -6 -6z"/>
<path d="M14900 6778 c0 -4 14 -8 30 -8 17 0 30 2 30 4 0 2 -13 6 -30 8 -16 3
-30 1 -30 -4z"/>
<path d="M15108 6783 c7 -3 16 -2 19 1 4 3 -2 6 -13 5 -11 0 -14 -3 -6 -6z"/>
<path d="M815 6767 c-47 -12 -40 -13 92 -12 89 0 143 4 143 10 0 15 -176 16
-235 2z"/>
<path d="M2773 6693 c9 -2 23 -2 30 0 6 3 -1 5 -18 5 -16 0 -22 -2 -12 -5z"/>
<path d="M1305 6596 l-40 -13 50 2 c28 2 62 3 78 4 15 0 27 6 27 11 0 14 -66
11 -115 -4z"/>
<path d="M15142 6553 c-46 -5 -48 -23 -2 -23 20 0 31 -6 35 -20 4 -12 15 -20
28 -20 11 0 31 -9 43 -20 21 -20 22 -20 58 -4 37 18 42 32 15 45 -66 32 -108
49 -120 47 -8 -1 -33 -3 -57 -5z"/>
<path d="M10055 6455 c33 -16 151 -20 159 -6 9 14 -32 21 -114 20 -72 -1 -74
-1 -45 -14z"/>
<path d="M5200 6370 c0 -5 7 -7 15 -4 8 4 15 8 15 10 0 2 -7 4 -15 4 -8 0 -15
-4 -15 -10z"/>
<path d="M10793 6333 c-13 -2 -23 -9 -23 -14 0 -10 -2 -10 60 -14 40 -3 110
16 110 29 0 7 -113 6 -147 -1z"/>
<path d="M10980 6310 c-19 -13 46 -13 75 0 16 7 11 9 -20 9 -22 0 -47 -4 -55
-9z"/>
<path d="M1925 6260 c-4 -6 11 -10 37 -9 33 0 38 2 23 9 -28 12 -53 12 -60 0z"/>
<path d="M10832 6233 c-10 -4 -8 -9 7 -20 12 -8 21 -21 21 -29 0 -8 10 -14 25
-14 16 0 25 6 25 15 0 8 9 15 20 15 25 0 26 17 3 23 -36 10 -88 15 -101 10z"/>
<path d="M13588 6193 c6 -2 18 -2 25 0 6 3 1 5 -13 5 -14 0 -19 -2 -12 -5z"/>
<path d="M2725 6050 c-4 -6 7 -10 27 -10 25 0 29 3 18 10 -19 13 -37 13 -45 0z"/>
<path d="M15453 6053 c-22 -8 -14 -23 12 -23 14 0 25 4 25 9 0 11 -21 19 -37
14z"/>
<path d="M14976 6001 c-3 -5 0 -11 7 -13 17 -7 38 2 31 13 -7 12 -31 12 -38 0z"/>
<path d="M12886 5992 c-3 -6 -2 -13 4 -17 6 -4 8 -10 6 -14 -3 -4 14 -8 37
-10 23 -1 58 -6 77 -10 19 -4 79 -5 132 -3 89 4 99 6 113 28 14 22 14 24 -9
30 -14 3 -64 3 -113 -1 -134 -10 -145 -10 -194 -1 -30 5 -49 4 -53 -2z"/>
<path d="M12220 5980 c0 -5 5 -10 11 -10 5 0 7 5 4 10 -3 6 -8 10 -11 10 -2 0
-4 -4 -4 -10z"/>
<path d="M15190 5959 c0 -5 5 -7 10 -4 6 3 10 8 10 11 0 2 -4 4 -10 4 -5 0
-10 -5 -10 -11z"/>
<path d="M14220 5940 c-27 -17 4 -31 78 -34 74 -3 83 1 56 28 -17 18 -109 22
-134 6z"/>
<path d="M2925 5910 c-7 -12 22 -12 50 0 17 7 15 9 -12 9 -17 1 -35 -3 -38 -9z"/>
<path d="M14867 5903 c-26 -25 46 -33 79 -8 18 13 16 14 -27 15 -25 0 -49 -3
-52 -7z"/>
<path d="M15426 5897 c-21 -7 -45 -22 -54 -34 -14 -22 -13 -23 11 -23 14 0 29
4 32 10 4 6 13 5 26 -3 14 -8 22 -9 27 -1 4 6 15 15 25 21 18 9 18 11 2 26
-19 19 -17 19 -69 4z"/>
<path d="M14160 5877 c9 -8 90 -15 90 -8 0 4 -21 8 -47 10 -26 1 -45 0 -43 -2z"/>
<path d="M14629 5689 c-6 -3 16 -20 48 -37 51 -28 55 -31 30 -32 -32 0 -67
-16 -67 -30 0 -6 9 -10 19 -10 11 0 26 -7 35 -15 11 -11 17 -12 22 -4 5 9 10
7 19 -4 13 -18 36 -17 58 2 9 7 26 12 39 11 67 -6 59 15 -10 24 -48 6 -62 12
-62 27 0 20 49 28 92 15 34 -10 53 -10 89 -1 60 16 69 22 62 41 -5 13 -19 15
-72 11 -36 -3 -79 -8 -94 -12 -16 -4 -38 -3 -50 3 -24 12 -143 20 -158 11z"/>
<path d="M15125 5676 c-28 -12 -29 -13 -10 -23 11 -6 33 -9 48 -6 16 3 37 -1
51 -10 21 -14 26 -14 45 -1 25 18 27 39 5 48 -27 10 -107 6 -139 -8z"/>
<path d="M2540 5620 c8 -5 24 -10 35 -10 17 0 17 2 5 10 -8 5 -24 10 -35 10
-17 0 -17 -2 -5 -10z"/>
<path d="M2036 5611 c-15 -23 57 -27 119 -6 l40 13 -77 1 c-42 1 -79 -3 -82
-8z"/>
<path d="M14503 5613 c-13 -2 -23 -9 -23 -15 0 -6 -7 -20 -17 -30 -20 -22 -18
-24 30 -31 39 -6 46 0 25 22 -11 10 -9 16 10 28 12 9 22 19 22 24 0 9 -8 10
-47 2z"/>
<path d="M15493 5603 c-18 -6 -16 -23 1 -23 17 0 30 16 19 23 -5 2 -14 2 -20
0z"/>
<path d="M14310 5550 c-12 -8 -9 -10 13 -10 16 0 26 4 22 10 -8 12 -16 12 -35
0z"/>
<path d="M1302 5533 c-21 -8 -2 -23 31 -23 48 0 66 16 27 24 -36 7 -39 7 -58
-1z"/>
<path d="M15242 5484 c3 -15 11 -18 38 -16 58 5 56 19 -5 29 -33 5 -37 4 -33
-13z"/>
<path d="M1559 5480 c-11 -8 -11 -10 1 -14 30 -9 150 -13 150 -5 0 5 -20 9
-44 9 -25 0 -55 4 -69 9 -13 5 -30 5 -38 1z"/>
<path d="M15013 5484 c-33 -15 16 -44 73 -44 32 0 56 21 40 37 -8 8 -98 14
-113 7z"/>
<path d="M15340 5483 c-22 -9 90 -43 120 -37 53 12 57 14 36 30 -20 14 -125
19 -156 7z"/>
<path d="M1787 5443 c-26 -7 -10 -23 23 -23 36 0 61 10 54 21 -5 9 -45 10 -77
2z"/>
<path d="M14600 5431 c-28 -5 -31 -8 -17 -14 39 -15 123 -5 111 14 -6 10 -40
10 -94 0z"/>
<path d="M18 5403 c-25 -6 -23 -43 2 -43 11 0 20 5 20 10 0 6 15 10 33 10 51
0 65 16 20 23 -41 7 -48 7 -75 0z"/>
<path d="M12488 5393 c-59 -6 -48 -24 22 -35 8 -1 28 1 45 6 29 7 29 8 11 22
-11 8 -25 13 -30 12 -6 -1 -28 -3 -48 -5z"/>
<path d="M140 5350 c0 -5 14 -7 33 -3 45 8 47 13 4 13 -20 0 -37 -4 -37 -10z"/>
<path d="M11282 5343 c-19 -4 -21 -7 -11 -19 6 -8 24 -14 40 -14 15 0 30 -4
33 -9 8 -12 67 -15 261 -12 159 2 241 13 230 31 -8 12 -58 12 -109 1 -25 -6
-80 -4 -165 6 -143 17 -245 23 -279 16z"/>
<path d="M11195 5330 c-3 -5 1 -10 9 -10 8 0 18 5 21 10 3 6 -1 10 -9 10 -8 0
-18 -4 -21 -10z"/>
<path d="M13340 5300 c0 -5 7 -10 15 -10 8 0 15 5 15 10 0 6 -7 10 -15 10 -8
0 -15 -4 -15 -10z"/>
<path d="M3918 5283 c6 -2 18 -2 25 0 6 3 1 5 -13 5 -14 0 -19 -2 -12 -5z"/>
<path d="M12245 5250 c-7 -11 -8 -11 25 -15 32 -3 46 5 29 16 -19 12 -46 11
-54 -1z"/>
<path d="M245 5230 c3 -5 30 -10 60 -10 30 0 57 5 60 10 4 6 -18 10 -60 10
-42 0 -64 -4 -60 -10z"/>
<path d="M11060 5230 c-22 -13 -5 -23 27 -16 21 6 24 9 12 17 -18 11 -20 11
-39 -1z"/>
<path d="M10385 5210 c-15 -7 -10 -9 23 -9 26 -1 41 3 37 9 -7 12 -32 12 -60
0z"/>
<path d="M11915 5205 c-5 -2 -23 -6 -39 -10 -19 -4 -26 -9 -19 -16 12 -12 143
0 143 12 0 5 -8 9 -17 9 -10 0 -27 2 -38 5 -11 2 -24 2 -30 0z"/>
<path d="M11043 5176 c-4 -7 -15 -16 -23 -19 -10 -4 -8 -6 6 -6 12 -1 27 -8
34 -16 16 -19 80 -19 106 0 19 14 18 15 -6 35 -29 23 -105 27 -117 6z"/>
<path d="M12085 5170 c-3 -5 -2 -10 4 -10 5 0 13 5 16 10 3 6 2 10 -4 10 -5 0
-13 -4 -16 -10z"/>
<path d="M14412 5127 c-16 -19 -5 -27 40 -27 32 0 39 3 36 18 -4 22 -60 29
-76 9z"/>
<path d="M1221 5101 c-54 -10 -51 -31 4 -31 54 0 135 19 135 31 0 10 -85 10
-139 0z"/>
<path d="M2171 5091 c-12 -8 -13 -12 -1 -26 7 -9 19 -14 27 -11 7 3 13 -1 13
-8 0 -18 50 -25 113 -15 45 7 53 6 70 -12 17 -18 27 -20 65 -15 25 3 59 6 76
6 57 1 0 22 -63 24 -39 1 -61 6 -71 18 -27 31 -196 60 -229 39z"/>
<path d="M13110 5085 c0 -10 10 -14 35 -13 22 1 35 6 35 15 0 8 -12 13 -35 13
-24 0 -35 -5 -35 -15z"/>
<path d="M14682 5090 c-63 -15 -66 -49 -6 -50 28 0 69 33 60 48 -8 13 -7 13
-54 2z"/>
<path d="M12985 5077 c-20 -15 -15 -21 27 -31 33 -8 48 12 23 31 -23 16 -27
16 -50 0z"/>
<path d="M13237 5074 c-38 -20 -34 -31 14 -39 23 -4 50 -16 60 -26 10 -10 25
-19 32 -19 8 0 7 3 -3 10 -24 15 -1 29 65 40 87 16 94 19 71 32 -31 18 -206
19 -239 2z"/>
<path d="M14165 5081 c-6 -11 9 -23 19 -14 9 9 7 23 -3 23 -6 0 -12 -4 -16 -9z"/>
<path d="M4016 5056 c-28 -13 -28 -13 33 -20 34 -4 65 -4 70 -1 5 3 21 0 34
-6 20 -9 30 -8 47 4 31 21 11 30 -79 34 -48 1 -87 -2 -105 -11z"/>
<path d="M768 5043 c-32 -8 -20 -26 13 -19 17 3 39 6 48 6 14 0 14 2 1 10 -16
10 -33 11 -62 3z"/>
<path d="M15175 5040 c3 -5 11 -10 16 -10 6 0 7 5 4 10 -3 6 -11 10 -16 10 -6
0 -7 -4 -4 -10z"/>
<path d="M0 5007 c0 -19 5 -20 83 -14 45 4 100 7 122 7 30 0 36 3 27 12 -7 7
-52 12 -122 13 -104 2 -110 1 -110 -18z"/>
<path d="M2807 5010 c-98 -8 -70 -25 53 -31 131 -7 123 -6 115 -19 -10 -15 38
-11 59 5 11 8 35 15 53 15 41 0 42 11 4 28 -28 12 -154 13 -284 2z"/>
<path d="M15220 5016 c0 -2 7 -6 15 -10 8 -3 15 -1 15 4 0 6 -7 10 -15 10 -8
0 -15 -2 -15 -4z"/>
<path d="M1280 5000 c0 -5 14 -7 33 -3 45 8 47 13 4 13 -20 0 -37 -4 -37 -10z"/>
<path d="M4054 4999 c-12 -20 199 -20 218 -1 6 6 -32 9 -102 8 -62 0 -114 -4
-116 -7z"/>
<path d="M14125 4993 c-30 -8 -48 -25 -35 -33 16 -10 123 -11 139 -1 11 7 10
11 -5 19 -26 13 -75 21 -99 15z"/>
<path d="M3320 4976 c0 -8 60 -12 72 -4 8 4 -4 8 -29 8 -24 0 -43 -2 -43 -4z"/>
<path d="M3648 4973 c7 -3 16 -2 19 1 4 3 -2 6 -13 5 -11 0 -14 -3 -6 -6z"/>
<path d="M14290 4971 l-35 -7 28 -7 c33 -9 70 0 62 14 -4 5 -9 8 -13 8 -4 -1
-23 -5 -42 -8z"/>
<path d="M15550 4951 c0 -12 39 -21 45 -11 3 4 -2 11 -11 14 -22 8 -34 7 -34
-3z"/>
<path d="M12965 4939 c-4 -6 -5 -13 -2 -16 7 -7 27 6 27 18 0 12 -17 12 -25
-2z"/>
<path d="M14422 4934 c-12 -13 -9 -15 30 -10 23 3 55 5 71 5 15 1 27 6 27 11
0 17 -113 11 -128 -6z"/>
<path d="M13688 4924 c-59 -31 -12 -87 54 -65 43 14 175 16 208 3 14 -6 58
-15 98 -21 41 -7 87 -18 102 -26 22 -11 29 -12 33 -2 3 9 49 12 178 12 173 0
226 9 217 37 -4 12 -83 17 -383 24 -276 6 -312 8 -321 17 -4 4 -19 7 -33 7
-14 0 -35 7 -45 15 -25 19 -73 19 -108 -1z"/>
<path d="M879 4886 c-2 -2 -21 -6 -42 -9 -21 -3 -41 -8 -45 -12 -4 -4 11 -5
33 -2 22 4 67 7 100 8 45 1 54 3 35 9 -27 9 -74 12 -81 6z"/>
<path d="M14645 4860 c3 -5 18 -10 33 -9 24 0 25 1 7 9 -28 12 -47 12 -40 0z"/>
<path d="M15476 4818 c-37 -20 -16 -33 54 -33 66 0 70 1 70 22 0 21 -4 22 -54
21 -30 -1 -62 -5 -70 -10z"/>
<path d="M14985 4787 c-12 -10 -14 -16 -7 -21 7 -4 12 -5 12 -1 0 3 9 1 20 -5
19 -10 110 6 110 21 0 20 -109 24 -135 6z"/>
<path d="M3370 4780 c0 -5 14 -7 33 -3 45 8 47 13 4 13 -20 0 -37 -4 -37 -10z"/>
<path d="M13015 4781 c-3 -5 0 -13 5 -16 15 -9 60 3 60 15 0 13 -57 13 -65 1z"/>
<path d="M15184 4779 c-7 -11 12 -29 31 -29 19 0 38 18 31 29 -4 6 -18 11 -31
11 -13 0 -27 -5 -31 -11z"/>
<path d="M13863 4773 c-23 -9 -14 -20 18 -21 19 0 29 4 26 11 -4 13 -26 18
-44 10z"/>
<path d="M15407 4772 c-26 -5 -15 -26 16 -30 18 -2 27 1 27 11 0 17 -17 25
-43 19z"/>
<path d="M15333 4763 c9 -2 23 -2 30 0 6 3 -1 5 -18 5 -16 0 -22 -2 -12 -5z"/>
<path d="M10630 4740 c-9 -6 -10 -10 -3 -10 6 0 15 5 18 10 8 12 4 12 -15 0z"/>
<path d="M11561 4726 c-9 -11 -8 -15 6 -20 34 -13 113 -18 113 -7 0 6 -4 11
-10 11 -5 0 -10 7 -10 15 0 20 -83 21 -99 1z"/>
<path d="M3485 4650 c-9 -14 42 -31 71 -24 23 6 23 7 7 20 -21 16 -69 18 -78
4z"/>
<path d="M10930 4640 c0 -17 43 -29 58 -17 11 8 11 12 0 18 -18 12 -58 11 -58
-1z"/>
<path d="M11726 4570 c-120 -15 -104 -30 31 -30 107 0 151 8 126 23 -19 11
-93 14 -157 7z"/>
<path d="M12990 4551 l-25 -7 22 -12 c25 -14 93 -16 93 -4 0 9 -45 33 -58 31
-4 -1 -18 -4 -32 -8z"/>
<path d="M15290 4549 c-25 -4 -75 -5 -111 -2 -44 4 -69 2 -73 -6 -4 -6 -18
-11 -31 -11 -12 0 -26 -7 -29 -16 -4 -12 -2 -15 9 -11 8 4 17 2 20 -2 10 -17
104 -23 156 -11 37 9 61 9 92 1 23 -6 61 -13 84 -15 23 -2 46 -7 51 -10 14 -8
112 36 112 51 0 7 -8 16 -17 21 -24 13 -207 20 -263 11z"/>
<path d="M630 4513 c-55 -10 -42 -23 22 -23 70 0 98 6 98 21 0 9 -74 10 -120
2z"/>
<path d="M785 4510 c-17 -7 -15 -9 12 -9 17 -1 35 4 38 9 7 12 -22 12 -50 0z"/>
<path d="M2468 4513 c-28 -4 -39 -22 -15 -24 37 -4 89 10 82 21 -6 10 -17 10
-67 3z"/>
<path d="M13602 4508 c6 -18 25 -20 31 -3 5 10 0 15 -14 15 -12 0 -19 -5 -17
-12z"/>
<path d="M85 4491 c-6 -5 -19 -11 -30 -13 -13 -3 -6 -6 17 -9 21 -3 35 -3 33
0 -3 2 0 10 6 18 9 10 8 13 -3 13 -8 0 -18 -4 -23 -9z"/>
<path d="M13632 4438 c5 -15 28 -18 29 -3 0 6 -7 12 -17 13 -10 3 -15 -1 -12
-10z"/>
<path d="M14775 4411 c-10 -18 17 -23 33 -7 15 15 15 16 -5 16 -12 0 -24 -4
-28 -9z"/>
<path d="M10688 4393 c-26 -4 -40 -23 -18 -23 6 0 10 -4 10 -10 0 -5 -7 -10
-17 -10 -9 0 -13 -3 -10 -6 4 -4 127 -8 274 -9 160 -2 240 1 198 5 -38 4 -123
8 -187 9 -65 0 -118 4 -118 7 0 4 8 13 18 20 15 12 12 13 -24 14 -23 0 -54 2
-70 4 -16 2 -41 2 -56 -1z"/>
<path d="M13735 4350 c3 -5 8 -10 11 -10 2 0 4 5 4 10 0 6 -5 10 -11 10 -5 0
-7 -4 -4 -10z"/>
<path d="M13898 4353 c6 -2 18 -2 25 0 6 3 1 5 -13 5 -14 0 -19 -2 -12 -5z"/>
<path d="M14383 4343 c9 -2 25 -2 35 0 9 3 1 5 -18 5 -19 0 -27 -2 -17 -5z"/>
<path d="M3934 4321 c3 -5 -10 -23 -29 -40 -19 -17 -35 -33 -35 -36 0 -9 -50
-77 -70 -95 -41 -38 -150 -188 -150 -207 0 -5 -16 -28 -35 -53 -19 -25 -54
-74 -78 -110 -56 -83 -91 -120 -114 -120 -15 0 -14 -2 5 -16 22 -15 30 -66 14
-91 -5 -8 -84 -10 -302 -7 -162 2 -302 4 -310 4 -8 0 -102 0 -209 0 -107 0
-197 2 -201 5 -8 5 -213 6 -265 1 -35 -4 -228 -5 -520 -3 -233 2 -272 -2 -278
-23 -5 -18 -14 -20 -110 -20 -82 0 -106 3 -110 14 -3 8 -1 17 6 19 32 12 -78
18 -266 15 -180 -3 -210 -5 -217 -19 -7 -13 -33 -18 -109 -23 -106 -8 -130 -4
-111 19 10 12 -25 14 -214 14 l-226 1 0 -24 0 -23 263 -6 c144 -3 276 -4 292
-2 17 2 77 4 135 6 58 1 92 4 75 6 -56 7 -76 14 -69 24 7 12 78 3 109 -14 32
-18 115 -18 115 -1 0 19 -7 20 128 -16 20 -5 261 -12 541 -15 278 -3 508 -8
513 -11 4 -3 8 2 8 10 0 24 19 29 44 12 13 -8 27 -12 30 -8 10 10 72 16 149
14 77 -1 96 -2 229 -13 53 -5 517 -11 1030 -14 538 -4 939 -10 949 -16 10 -5
21 -9 24 -9 11 0 -6 83 -21 105 -8 11 -14 27 -14 37 0 9 -5 20 -12 24 -8 5 -9
-2 -5 -25 5 -23 3 -33 -8 -37 -8 -4 -12 -10 -10 -15 7 -11 -432 -10 -493 1
-26 5 -71 14 -101 21 -42 10 -58 10 -73 0 -11 -7 -17 -8 -14 -3 4 6 -16 9 -51
7 -32 -2 -104 -1 -160 2 l-103 6 0 40 c0 34 8 49 63 111 34 39 72 79 85 89 12
10 22 24 22 32 0 7 34 55 76 107 73 88 113 155 114 187 0 16 5 22 77 96 26 27
49 60 51 72 2 20 -2 23 -28 23 -17 0 -29 -4 -26 -9z m-2396 -798 c2 -8 -6 -13
-22 -13 -25 0 -33 10 -19 24 10 10 36 3 41 -11z"/>
<path d="M2773 4253 c9 -2 23 -2 30 0 6 3 -1 5 -18 5 -16 0 -22 -2 -12 -5z"/>
<path d="M5650 4120 c0 -5 5 -10 10 -10 6 0 10 5 10 10 0 6 -4 10 -10 10 -5 0
-10 -4 -10 -10z"/>
<path d="M2160 3456 c0 -8 5 -18 10 -21 6 -3 10 3 10 14 0 12 -4 21 -10 21 -5
0 -10 -6 -10 -14z"/>
<path d="M14318 3243 c6 -2 18 -2 25 0 6 3 1 5 -13 5 -14 0 -19 -2 -12 -5z"/>
<path d="M2169 3210 c-7 -35 -4 -48 7 -38 3 4 4 21 2 40 l-3 33 -6 -35z"/>
<path d="M9280 2630 c0 -5 5 -10 11 -10 5 0 7 5 4 10 -3 6 -8 10 -11 10 -2 0
-4 -4 -4 -10z"/>
<path d="M10385 2580 c-3 -5 -1 -10 4 -10 6 0 11 5 11 10 0 6 -2 10 -4 10 -3
0 -8 -4 -11 -10z"/>
<path d="M2082 2390 c0 -19 2 -27 5 -17 2 9 2 25 0 35 -3 9 -5 1 -5 -18z"/>
<path d="M9256 2402 c-16 -3 -14 -7 13 -18 18 -8 48 -14 66 -14 41 0 67 -9 59
-21 -3 -5 2 -9 11 -9 9 0 15 -6 14 -12 -4 -31 3 -38 36 -38 19 0 35 4 35 10 0
5 8 6 17 3 13 -5 15 -2 10 11 -6 15 -3 17 13 13 24 -6 27 8 4 17 -9 4 -14 13
-10 21 4 10 -1 15 -15 15 -16 0 -19 -4 -14 -20 4 -12 2 -20 -5 -20 -6 0 -8 5
-5 10 3 6 2 10 -4 10 -6 0 -8 6 -5 14 9 23 -29 37 -81 29 -31 -4 -42 -9 -33
-14 10 -7 10 -9 0 -9 -7 0 -15 7 -18 15 -6 14 -42 17 -88 7z m74 -12 c0 -5 -2
-10 -4 -10 -3 0 -8 5 -11 10 -3 6 -1 10 4 10 6 0 11 -4 11 -10z"/>
<path d="M9563 2383 c-31 -21 -29 -33 5 -33 21 0 24 2 12 10 -12 8 -11 10 8
10 12 0 21 -5 20 -12 -2 -8 9 -14 25 -16 15 -2 25 -8 22 -13 -4 -5 -2 -9 4 -9
5 0 12 4 15 9 8 13 -4 42 -15 35 -5 -3 -6 3 -2 12 5 15 2 16 -24 11 -16 -3
-34 -2 -39 3 -5 4 -19 1 -31 -7z"/>
<path d="M9803 2369 c15 -11 25 -25 21 -30 -7 -12 26 -11 66 2 l32 12 -38 18
c-22 10 -55 18 -74 18 l-35 0 28 -20z"/>
<path d="M9750 2371 c0 -5 6 -12 13 -14 6 -2 -1 -3 -18 -1 -19 3 -25 1 -17 -4
7 -5 12 -15 10 -22 -2 -7 3 -15 10 -17 7 -3 11 1 10 8 -2 7 5 15 16 17 13 3
16 0 11 -9 -5 -8 -4 -10 4 -5 6 4 9 12 6 17 -4 5 0 9 7 9 7 0 0 7 -16 15 -33
18 -36 18 -36 6z"/>
<path d="M2065 2247 c-8 -31 0 -46 15 -31 7 7 7 19 1 35 l-9 24 -7 -28z"/>
<path d="M2061 2184 c0 -11 3 -14 6 -6 3 7 2 16 -1 19 -3 4 -6 -2 -5 -13z"/>
<path d="M10647 2152 c-10 -11 -14 -26 -10 -40 3 -13 1 -22 -5 -22 -6 0 -1
-10 11 -23 24 -25 49 -18 28 7 -8 9 -12 33 -9 56 2 22 3 40 2 40 0 0 -8 -8
-17 -18z"/>
<path d="M5232 2013 c-9 -15 -14 -16 -31 -5 -12 6 -25 12 -31 12 -18 0 -11
-17 13 -28 21 -10 21 -11 -9 -17 -36 -8 -36 -31 -1 -62 11 -10 17 -13 14 -6
-9 14 12 62 27 65 6 0 18 1 26 2 18 1 26 34 12 48 -7 7 -13 4 -20 -9z"/>
<path d="M5318 2003 c-16 -2 -28 -9 -28 -14 0 -6 9 -7 20 -4 11 3 20 2 20 -3
0 -19 75 -42 120 -38 25 2 60 4 79 5 35 1 38 10 5 15 -35 5 -27 26 11 26 21 0
34 -4 30 -10 -4 -7 3 -7 20 0 35 13 35 13 35 -9 0 -15 7 -19 29 -19 17 1 40
-6 53 -14 44 -29 201 -4 195 31 -1 10 9 17 28 21 17 4 -65 10 -182 14 -149 5
-222 4 -246 -3 -24 -8 -42 -9 -61 -1 -27 10 -75 11 -128 3z m121 -17 c-11 -9
-69 -15 -64 -6 3 6 20 10 37 10 17 0 29 -2 27 -4z"/>
<path d="M12550 1969 c0 -5 5 -7 10 -4 6 3 10 8 10 11 0 2 -4 4 -10 4 -5 0
-10 -5 -10 -11z"/>
<path d="M12580 1971 c0 -17 53 -21 243 -17 103 1 190 -1 193 -6 3 -4 0 -8 -5
-8 -6 0 -11 -5 -11 -11 0 -13 31 -8 31 6 1 6 5 16 11 23 8 8 7 12 -3 13 -122
7 -459 7 -459 0z"/>
<path d="M13235 1970 c-85 -4 -94 -6 -62 -14 20 -4 37 -12 37 -17 0 -5 7 -9
16 -9 8 0 13 4 10 9 -9 15 51 18 70 4 10 -7 27 -13 38 -14 20 0 20 -1 2 -8
-25 -10 -8 -22 46 -31 27 -5 41 -3 49 7 14 16 4 29 -25 35 -31 5 -31 28 0 28
15 0 25 2 23 4 -10 8 -112 12 -204 6z"/>
<path d="M14138 1973 c7 -3 16 -2 19 1 4 3 -2 6 -13 5 -11 0 -14 -3 -6 -6z"/>
<path d="M15408 1973 c23 -2 59 -2 80 0 20 2 1 4 -43 4 -44 0 -61 -2 -37 -4z"/>
<path d="M12490 1960 c0 -5 7 -7 15 -4 8 4 15 8 15 10 0 2 -7 4 -15 4 -8 0
-15 -4 -15 -10z"/>
<path d="M13068 1963 c6 -2 18 -2 25 0 6 3 1 5 -13 5 -14 0 -19 -2 -12 -5z"/>
<path d="M13503 1963 c15 -2 39 -2 55 0 15 2 2 4 -28 4 -30 0 -43 -2 -27 -4z"/>
<path d="M13673 1963 c23 -6 22 -20 -3 -33 -14 -8 -26 -8 -40 0 -16 8 -25 7
-42 -4 l-21 -15 24 -11 c13 -6 39 -19 58 -29 33 -18 34 -17 94 13 68 35 84 56
42 56 -20 0 -26 4 -21 15 4 11 -1 15 -17 15 -18 0 -19 -2 -7 -10 12 -8 10 -10
-8 -10 -13 0 -20 4 -17 10 4 6 -7 10 -27 9 -18 -1 -25 -3 -15 -6z"/>
<path d="M12505 1930 c-11 -5 -16 -9 -11 -9 5 -1 1 -10 -9 -21 -29 -32 -14
-48 42 -43 74 8 91 30 51 64 -25 20 -42 22 -73 9z"/>
<path d="M13855 1930 c-8 -13 3 -50 15 -50 13 0 32 39 25 50 -8 13 -32 13 -40
0z"/>
<path d="M12890 1910 c0 -6 -10 -8 -24 -4 -31 7 -55 -4 -35 -17 8 -5 24 -9 35
-9 26 0 50 25 34 35 -5 3 -10 1 -10 -5z"/>
<path d="M13186 1912 c-3 -5 -25 -8 -50 -7 -44 2 -65 -13 -51 -35 3 -5 -4 -8
-15 -7 -11 1 -20 5 -20 9 0 4 -9 8 -21 8 -11 0 -18 -4 -15 -9 3 -5 0 -14 -7
-20 -15 -12 -114 -4 -123 10 -3 5 -16 2 -29 -7 -13 -8 -32 -14 -42 -12 -17 3
-18 -8 -18 -162 0 -91 -4 -174 -8 -186 -11 -30 8 -47 115 -103 122 -62 162
-93 193 -146 14 -23 25 -44 25 -47 0 -3 -26 -31 -57 -62 -51 -49 -57 -58 -46
-75 9 -15 9 -23 -1 -36 -11 -15 -13 -15 -23 8 l-11 24 -93 -46 c-85 -43 -98
-46 -168 -46 -64 0 -85 5 -128 28 -29 15 -61 27 -72 27 -11 0 -23 5 -26 10 -3
6 -30 10 -59 10 -67 0 -127 -37 -202 -127 -71 -84 -83 -124 -59 -206 10 -34
29 -80 42 -103 43 -76 22 -185 -56 -283 -16 -20 -52 -70 -80 -111 -91 -132
-117 -165 -151 -187 l-33 -23 65 0 65 0 139 132 c162 155 235 228 360 358 50
52 142 144 205 203 63 59 150 151 194 203 44 53 88 100 98 106 10 5 28 19 39
30 22 22 32 17 52 -24 14 -27 46 -37 46 -13 0 8 7 18 16 22 11 4 12 8 4 13 -7
5 -5 14 9 31 16 19 22 22 32 12 21 -21 31 -15 18 10 -11 20 -11 21 4 9 9 -8
22 -10 29 -6 7 5 21 7 32 5 10 -1 22 3 26 9 5 7 16 9 29 5 12 -3 19 -11 16
-16 -4 -5 0 -9 7 -9 7 0 20 -5 28 -10 13 -8 12 -11 -4 -23 -23 -17 -9 -28 22
-16 23 9 31 39 10 39 -7 0 1 7 17 16 35 18 212 26 233 11 7 -6 34 -7 65 -2 72
10 88 8 106 -10 8 -8 11 -15 5 -15 -5 0 -10 -13 -9 -29 l0 -30 32 25 c17 13
36 24 41 24 5 0 15 7 22 15 19 23 111 20 140 -5 28 -24 34 -25 54 -5 19 19 73
20 73 1 0 -8 -8 -11 -20 -8 -12 3 -18 1 -14 -5 4 -6 -4 -8 -21 -5 -24 5 -25 3
-14 -11 8 -9 11 -21 7 -27 -3 -5 2 -10 14 -10 11 0 22 4 25 8 6 10 106 -19
106 -30 0 -4 -12 -11 -26 -14 -17 -4 -23 -11 -20 -21 4 -8 9 -33 12 -54 4 -22
9 -38 13 -36 3 2 21 10 39 17 17 8 32 20 32 28 0 7 7 15 15 18 8 4 15 17 15
30 0 17 7 25 25 30 21 5 23 9 14 20 -7 8 -9 17 -5 21 3 3 0 16 -9 29 -25 38
23 49 210 46 88 -1 178 -2 200 -2 40 0 158 5 310 14 58 3 86 0 102 -10 25 -15
37 -18 30 -6 -4 6 76 9 296 12 l47 0 0 360 0 360 -32 1 c-18 0 -107 3 -198 5
-91 3 -174 5 -185 5 -11 0 -155 -3 -320 -7 -236 -5 -760 -8 -760 -4 0 0 -61 3
-135 5 -74 3 -189 7 -255 11 -66 3 -176 5 -244 5 -132 -1 -142 2 -201 56 -24
22 -74 31 -84 15z m-541 -1041 c7 -24 -12 -74 -27 -69 -26 9 -32 35 -15 62 21
31 33 33 42 7z m-97 -150 c-4 -21 -37 -26 -44 -7 -3 9 -3 28 1 44 l7 27 19
-24 c11 -13 18 -31 17 -40z"/>
<path d="M14036 1911 c5 -5 20 -12 34 -16 22 -7 23 -6 8 9 -9 9 -25 16 -34 16
-11 0 -14 -3 -8 -9z"/>
<path d="M12770 1899 c0 -5 5 -7 10 -4 6 3 10 8 10 11 0 2 -4 4 -10 4 -5 0
-10 -5 -10 -11z"/>
<path d="M15513 1884 c-8 -21 26 -49 41 -34 7 7 7 16 0 27 -15 24 -33 27 -41
7z"/>
<path d="M12428 1863 c6 -2 18 -2 25 0 6 3 1 5 -13 5 -14 0 -19 -2 -12 -5z"/>
<path d="M12487 1784 c118 -142 132 -151 135 -86 1 20 2 48 3 62 1 14 -7 35
-18 48 -18 19 -31 22 -89 22 l-69 0 38 -46z"/>
<path d="M3437 1504 c-12 -12 4 -24 34 -24 34 0 39 15 7 24 -29 7 -33 7 -41 0z"/>
<path d="M372 1070 c-18 -16 -37 -30 -43 -30 -5 0 -9 -4 -9 -10 0 -5 -13 -10
-30 -10 -16 0 -30 -5 -30 -11 0 -7 11 -8 33 -3 17 4 85 7 150 6 66 -1 123 1
129 4 5 3 -4 15 -21 25 -35 21 -45 24 -37 10 3 -5 -13 -11 -37 -13 -44 -5 -66
0 -49 11 5 3 12 15 14 26 5 32 -33 30 -70 -5z"/>
<path d="M4969 1079 c4 -13 13 -24 20 -25 6 -1 7 0 1 3 -5 2 -10 11 -10 18 0
8 -4 17 -10 20 -6 4 -7 -2 -1 -16z"/>
<path d="M9160 1040 c0 -5 5 -10 10 -10 6 0 10 5 10 10 0 6 -4 10 -10 10 -5 0
-10 -4 -10 -10z"/>
<path d="M13255 1029 c-11 -17 1 -21 15 -4 8 9 8 15 2 15 -6 0 -14 -5 -17 -11z"/>
<path d="M98 1023 c7 -3 16 -2 19 1 4 3 -2 6 -13 5 -11 0 -14 -3 -6 -6z"/>
<path d="M148 1018 c6 -6 18 -8 28 -6 14 3 12 5 -9 10 -19 3 -25 2 -19 -4z"/>
<path d="M3603 1013 c9 -2 23 -2 30 0 6 3 -1 5 -18 5 -16 0 -22 -2 -12 -5z"/>
<path d="M6707 1009 c8 -8 16 -8 30 0 16 9 14 10 -11 11 -22 0 -27 -3 -19 -11z"/>
<path d="M9133 1013 c9 -2 23 -2 30 0 6 3 -1 5 -18 5 -16 0 -22 -2 -12 -5z"/>
<path d="M10073 1013 c9 -2 25 -2 35 0 9 3 1 5 -18 5 -19 0 -27 -2 -17 -5z"/>
<path d="M9468 1003 c7 -3 16 -2 19 1 4 3 -2 6 -13 5 -11 0 -14 -3 -6 -6z"/>
<path d="M9678 993 c7 -3 16 -2 19 1 4 3 -2 6 -13 5 -11 0 -14 -3 -6 -6z"/>
<path d="M11353 984 c-3 -8 -1 -20 6 -27 8 -8 11 -4 11 16 0 30 -7 35 -17 11z"/>
<path d="M13260 990 c19 -13 30 -13 30 0 0 6 -10 10 -22 10 -19 0 -20 -2 -8
-10z"/>
<path d="M14128 973 c12 -2 30 -2 40 0 9 3 -1 5 -23 4 -22 0 -30 -2 -17 -4z"/>
<path d="M11351 773 c57 -111 84 -150 72 -104 -3 12 -10 21 -16 21 -6 0 -7 3
-4 7 4 3 1 16 -6 27 -8 12 -17 32 -20 46 -8 33 -64 120 -77 120 -5 0 17 -53
51 -117z"/>
<path d="M14340 513 c-76 -29 -91 -82 -35 -123 19 -14 35 -31 35 -37 0 -7 5
-13 10 -13 6 0 10 -4 10 -10 0 -5 -6 -10 -14 -10 -9 0 -15 -14 -18 -40 -6 -63
33 -96 52 -44 6 14 10 84 10 155 0 137 -1 140 -50 122z m5 -32 c6 -11 -33 -36
-43 -27 -3 3 0 6 6 6 6 0 9 7 6 15 -7 17 21 21 31 6z"/>
<path d="M2035 100 c3 -5 8 -10 11 -10 2 0 4 5 4 10 0 6 -5 10 -11 10 -5 0 -7
-4 -4 -10z"/>
<path d="M14367 71 c3 -10 0 -22 -5 -25 -12 -7 -4 -46 9 -46 5 0 9 20 9 45 0
25 -4 45 -9 45 -5 0 -7 -8 -4 -19z"/>
</g>
</svg>
